<?xml version="1.0" standalone="no"?>
<!DOCTYPE svg PUBLIC "-//W3C//DTD SVG 20010904//EN"
 "http://www.w3.org/TR/2001/REC-SVG-20010904/DTD/svg10.dtd">
<svg version="1.0" xmlns="http://www.w3.org/2000/svg"
 width="700.000000pt" height="700.000000pt" viewBox="0 0 700.000000 700.000000"
 preserveAspectRatio="xMidYMid meet">
<metadata>
Created by potrace 1.14, written by Peter Selinger 2001-2017
</metadata>
<g transform="translate(0.000000,700.000000) scale(0.100000,-0.100000)"
fill="#000000" stroke="none">
<path d="M125 6981 c-22 -10 -52 -31 -67 -47 -60 -65 -58 -22 -58 -976 l1
-873 23 -45 c27 -55 85 -97 146 -108 25 -4 428 -7 895 -6 794 1 852 2 885 19
49 24 78 53 103 100 20 40 21 48 21 915 l0 876 -23 46 c-26 54 -70 91 -126
107 -28 7 -306 11 -900 11 -816 0 -862 -1 -900 -19z"/>
<path d="M2582 6979 c-52 -26 -97 -79 -110 -128 -5 -22 -8 -389 -8 -902 2
-948 -1 -900 62 -962 62 -62 15 -59 974 -60 818 -1 877 1 912 17 44 21 83 59
106 101 15 27 17 112 18 900 0 511 -3 885 -9 907 -5 20 -24 55 -43 77 -64 74
-21 71 -994 71 -858 0 -866 -1 -908 -21z"/>
<path d="M5075 6993 c-53 -14 -118 -77 -136 -132 -9 -27 -12 -256 -12 -906 0
-817 1 -872 17 -905 25 -49 54 -79 101 -103 40 -20 50 -20 910 -20 664 -1 879
2 907 12 51 17 111 78 126 127 16 56 17 1729 1 1789 -15 52 -82 119 -134 134
-40 11 -1736 15 -1780 4z"/>
<path d="M140 4526 c-48 -14 -116 -85 -130 -134 -7 -28 -10 -311 -8 -916 l3
-874 30 -44 c19 -27 49 -52 81 -69 l51 -26 854 -1 c971 -1 929 -4 998 74 25
28 43 61 48 86 4 22 7 425 7 896 -2 937 1 894 -60 955 -65 65 0 61 -964 62
-586 1 -887 -2 -910 -9z"/>
<path d="M2606 4525 c-56 -19 -93 -51 -122 -106 -18 -32 -19 -76 -19 -919 l0
-885 28 -47 c18 -31 44 -57 75 -75 l47 -28 885 0 885 0 47 28 c31 18 57 44 75
75 l28 47 0 885 0 885 -25 45 c-16 28 -43 55 -74 75 l-49 30 -872 1 c-674 1
-881 -2 -909 -11z"/>
<path d="M5083 4530 c-30 -7 -54 -20 -95 -53 -9 -7 -26 -33 -39 -57 l-23 -43
1 -876 0 -876 22 -45 c26 -54 67 -88 124 -105 54 -16 1718 -18 1781 -2 52 13
117 79 134 133 16 55 17 1729 1 1788 -14 51 -84 120 -135 133 -46 11 -1718 14
-1771 3z"/>
<path d="M145 2062 c-58 -16 -118 -77 -134 -133 -9 -33 -11 -259 -9 -914 l3
-870 23 -40 c26 -45 72 -81 123 -95 52 -15 1731 -13 1781 2 50 15 112 75 129
125 10 30 13 227 13 908 -1 860 -1 870 -21 910 -24 47 -54 76 -103 100 -33 17
-92 18 -899 19 -667 1 -873 -2 -906 -12z"/>
<path d="M2613 2064 c-56 -14 -95 -46 -131 -109 -15 -28 -17 -97 -18 -890 -1
-531 2 -879 8 -909 13 -61 73 -125 135 -144 31 -9 246 -12 905 -12 856 0 864
1 906 21 56 28 98 81 111 138 6 29 9 367 8 906 -2 787 -4 863 -19 891 -20 37
-80 91 -117 106 -37 15 -1729 17 -1788 2z"/>
<path d="M5099 2069 c-68 -11 -120 -51 -155 -119 -16 -33 -18 -88 -18 -910 l0
-876 23 -46 c24 -50 67 -88 120 -106 26 -9 262 -12 900 -12 821 1 868 2 907
19 50 23 81 53 105 106 17 38 18 86 19 903 0 653 -3 874 -12 905 -7 22 -28 56
-47 75 -68 68 -16 65 -957 66 -468 1 -866 -2 -885 -5z"/>
</g>
</svg>
