<svg width="400" height="3" viewBox="0 0 400 3" fill="none" xmlns="http://www.w3.org/2000/svg">
<path opacity="0.5" fill-rule="evenodd" clip-rule="evenodd" d="M89.9943 1.62676C86.3524 0.839304 83.8318 0.745496 80.3213 1.62312L80.2868 1.63174L80.2514 1.6354C77.3237 1.93826 73.0176 1.83874 70.4959 1.6393C69.2363 1.71649 67.8927 1.58827 66.6047 1.46536C66.2678 1.43321 65.9347 1.40142 65.6078 1.37377C63.982 1.2362 62.5006 1.19825 61.2581 1.61239L61.1695 1.64193L61.0762 1.63749C59.0447 1.54075 57.4639 1.60957 56.0497 1.67114L55.9592 1.67508C54.5532 1.73621 53.2881 1.78785 51.9248 1.64367C49.4329 2.15769 47.073 1.95662 45.0063 1.78054C44.331 1.72299 43.6869 1.66812 43.0798 1.64174C41.5539 2.19577 39.998 2.18536 38.5407 2.04836C38.013 1.99874 37.4854 1.93093 36.9767 1.86555C36.7717 1.8392 36.5697 1.81324 36.372 1.78903C35.6741 1.70354 35.018 1.63805 34.4 1.63805H34.3384L34.2787 1.62312C32.5914 1.2013 31.3093 1.43093 30.0282 1.66726L29.9785 1.67643C28.7175 1.90918 27.4145 2.14969 25.854 1.61658C24.6643 1.29985 23.5827 1.40972 22.3084 1.55963C22.2695 1.56421 22.2304 1.56882 22.1911 1.57346C20.9488 1.72007 19.5465 1.88556 17.8273 1.63273L17.7895 1.62717L17.753 1.61594C15.2734 0.85301 12.2737 1.13449 10.2158 1.62445L10.171 1.63513L10.125 1.63743C8.84948 1.7012 7.52329 1.6845 5.86756 1.66364C4.92156 1.65172 3.86799 1.63845 2.65485 1.63806C1.78473 1.83144 0.848384 2.03805 0 2.03805V1.03805C0.734163 1.03805 1.57671 0.853253 2.49153 0.649958L2.54511 0.638051H2.6C3.8763 0.638051 4.96262 0.651862 5.92582 0.664108C7.53291 0.68454 8.79727 0.700615 10.0296 0.640913C12.1615 0.139511 15.3165 -0.168173 18.0096 0.648736C19.5794 0.87434 20.8582 0.723626 22.0977 0.577536C22.129 0.573844 22.1603 0.570156 22.1916 0.566476C23.4616 0.417058 24.726 0.277241 26.13 0.655243L26.1467 0.659734L26.163 0.665365C27.4744 1.11758 28.5528 0.922537 29.8468 0.683847C31.1272 0.447664 32.5779 0.180445 34.4615 0.638246C35.1244 0.64239 35.8095 0.712654 36.4936 0.796448C36.7038 0.822198 36.913 0.849093 37.1221 0.875959C37.6239 0.94047 38.1245 1.00482 38.6343 1.05275C40.071 1.18782 41.4797 1.17995 42.8227 0.670553L42.9177 0.634515L43.0192 0.638421C43.7371 0.666033 44.4664 0.728013 45.2106 0.791273C47.2646 0.965847 49.4333 1.15018 51.7962 0.648934L51.8751 0.632208L51.9552 0.641109C53.2613 0.786235 54.4743 0.738695 55.9158 0.676023L56.0127 0.671803C57.4066 0.611102 58.9987 0.541767 61.0323 0.634357C62.4682 0.180447 64.1015 0.242734 65.6922 0.377332C66.0451 0.407194 66.3958 0.440544 66.7437 0.473626C68.034 0.59633 69.2857 0.715354 70.4678 0.639089L70.5039 0.636763L70.5399 0.639644C73.0132 0.837506 77.2554 0.935606 80.1135 0.644299C83.762 -0.262973 86.4258 -0.161963 90.1351 0.634139C92.8561 0.436661 97.3354 0.339047 100.251 0.640705L100.262 0.6418C101.422 0.786747 102.738 0.788186 104.414 0.750677C104.823 0.741515 105.253 0.730062 105.706 0.717997C107.088 0.681188 108.685 0.638672 110.559 0.638058C113.587 0.141627 118.526 0.236609 121.182 0.629659C122.968 0.235022 124.719 0.239718 126.478 0.338843C127.055 0.37135 127.629 0.413527 128.205 0.455909C129.438 0.546512 130.683 0.638051 132 0.638051H132.015L132.029 0.638914C134.245 0.769222 136.531 0.728483 138.98 0.684846C140.268 0.661888 141.601 0.638129 142.993 0.638052C143.619 0.621123 144.24 0.601257 144.86 0.581425C147.875 0.485027 150.865 0.389444 154.191 0.636007C156.018 0.437353 157.862 0.489112 159.732 0.563446C159.919 0.570881 160.107 0.578542 160.295 0.586218C162.004 0.656119 163.743 0.727183 165.56 0.639385C167.398 0.436765 169.452 0.488714 171.456 0.563398C171.695 0.57229 171.933 0.581498 172.169 0.590663C173.928 0.658759 175.626 0.724507 177.135 0.640944C179.107 0.233275 181.215 0.391803 183.218 0.564908C183.318 0.573588 183.419 0.582301 183.519 0.590987C185.455 0.759398 187.279 0.918065 188.918 0.644854L188.972 0.63587L189.026 0.638742C190.328 0.707242 191.652 0.858076 192.981 1.00956C193.608 1.08093 194.235 1.15245 194.863 1.21556C196.838 1.41437 198.851 1.5358 200.954 1.3402L200.967 1.33916C202.328 1.24843 203.633 1.1383 204.894 1.03198C207.758 0.790372 210.39 0.568386 212.911 0.638156C214.597 0.66341 215.609 0.751683 216.326 0.864428C216.824 0.942718 217.192 1.03653 217.514 1.1186C217.648 1.15273 217.774 1.18482 217.898 1.21292C218.758 1.40777 219.967 1.53907 224.667 1.23917C225.731 1.16489 226.859 1.04716 228.019 0.923674L228.256 0.898363C229.338 0.783017 230.444 0.6651 231.535 0.577169C233.866 0.389135 236.179 0.332776 238.106 0.749344C241.449 1.47613 244.327 1.23264 247.378 0.974368C248.445 0.88407 249.533 0.791979 250.669 0.738943C252.415 0.605341 254.296 0.707012 256.188 0.809232C256.45 0.823427 256.713 0.837632 256.976 0.851219C259.151 0.963714 261.333 1.03558 263.431 0.742849L263.52 0.730463L263.607 0.749679C267.645 1.63595 272.367 1.73155 276.382 0.752291L276.446 0.736619L276.512 0.738193C277.548 0.76286 278.601 0.805137 279.663 0.847771C282.952 0.979829 286.327 1.1153 289.542 0.741398L289.596 0.735153L289.65 0.740533C292.117 0.987275 294.142 0.963029 296.194 0.888381C296.608 0.873325 297.024 0.856169 297.446 0.83879C299.099 0.770607 300.835 0.698993 302.866 0.7373C304.785 0.43683 307.314 0.213157 309.78 0.175609C312.229 0.138311 314.663 0.283586 316.38 0.741815C318.848 0.881317 320.999 0.794029 323.085 0.709357L323.292 0.70096C325.429 0.614489 327.512 0.538483 329.769 0.733422C334.197 -0.205559 337.001 0.0900598 340.426 0.451175C341.361 0.549704 342.342 0.653108 343.414 0.737641C345.166 0.701652 346.763 0.802917 348.338 0.902838C348.889 0.937773 349.437 0.972543 349.988 1.00123C352.133 1.11281 354.373 1.1368 357.129 0.743077L357.198 0.733205L357.268 0.742636C359.424 1.03675 361.815 1.03812 364.209 0.963295C365.048 0.937099 365.89 0.90134 366.721 0.86603C368.246 0.801285 369.736 0.738051 371.1 0.738051H371.133L371.165 0.742324C374.906 1.23457 381.146 0.940127 385.064 0.739264C387.178 0.538325 388.556 0.536884 389.678 0.627162C390.436 0.6882 391.086 0.793079 391.745 0.899598C392.048 0.948435 392.353 0.997617 392.671 1.04308L392.7 1.04728L392.729 1.05493C394.184 1.44298 394.906 1.48566 395.786 1.43876C396.027 1.42589 396.286 1.40551 396.578 1.38256C397.375 1.31987 398.415 1.04308 400 1.04308V2.02881C398.458 2.02881 397.48 2.31499 396.689 2.37728C396.386 2.40119 396.109 2.42293 395.839 2.43734C394.85 2.49011 394.026 2.43383 392.5 2.02881C392.156 1.9793 391.842 1.92861 391.54 1.8798C390.903 1.77662 390.316 1.68178 389.597 1.62394C388.546 1.53937 387.227 1.53777 385.147 1.7358L385.137 1.73684L385.126 1.7374C381.254 1.93596 374.926 2.23936 371.068 1.73806C369.731 1.73904 368.293 1.80022 366.797 1.86386C365.96 1.89944 365.105 1.93578 364.241 1.96281C361.86 2.03721 359.426 2.03931 357.202 1.74281C354.389 2.13887 352.099 2.11237 349.937 1.99988C349.362 1.97 348.8 1.93437 348.242 1.89895C346.671 1.79935 345.126 1.70144 343.411 1.73794L343.386 1.73847L343.361 1.73652C342.233 1.6481 341.219 1.54151 340.265 1.44123C336.853 1.08263 334.208 0.804748 329.905 1.72695L329.831 1.74277L329.756 1.73609C327.542 1.53931 325.497 1.61257 323.333 1.70014L323.114 1.709C321.02 1.79405 318.811 1.88375 316.271 1.73722L316.219 1.73421L316.168 1.72043C314.589 1.28959 312.246 1.13816 309.795 1.17549C307.355 1.21266 304.853 1.43586 302.978 1.73193L302.934 1.73882L302.89 1.73796C300.874 1.69842 299.161 1.769 297.499 1.83749C297.074 1.855 296.653 1.87236 296.231 1.88772C294.173 1.96254 292.112 1.98846 289.604 1.74091C286.319 2.117 282.852 1.97753 279.564 1.84524C278.54 1.80403 277.533 1.76352 276.554 1.7395C272.412 2.73641 267.602 2.6369 263.48 1.74545C261.306 2.03841 259.07 1.96087 256.924 1.84988C256.658 1.83613 256.394 1.82189 256.131 1.80773C254.229 1.70519 252.416 1.60751 250.738 1.73658L250.731 1.73716L250.723 1.73751C249.661 1.78693 248.616 1.8756 247.572 1.96418C244.479 2.22654 241.397 2.48811 237.894 1.72668C236.121 1.34333 233.933 1.38698 231.615 1.57393C230.538 1.66079 229.444 1.77739 228.36 1.89303L228.125 1.91805C226.966 2.04139 225.82 2.16111 224.735 2.23684L224.732 2.23704C220.033 2.53699 218.692 2.41831 217.677 2.18818C217.51 2.15043 217.364 2.11294 217.219 2.07595C216.916 1.99849 216.622 1.92322 216.171 1.8523C215.517 1.74949 214.555 1.6628 212.893 1.638L212.886 1.6379C210.422 1.56946 207.878 1.78419 205.043 2.02344C203.773 2.13064 202.445 2.24275 201.04 2.33651C201.042 2.33631 201.044 2.33611 201.046 2.3359L201 1.83805L201.033 2.33694C201.035 2.3368 201.038 2.33666 201.04 2.33651C198.845 2.54005 196.76 2.41154 194.762 2.21054C194.106 2.14445 193.463 2.07113 192.829 1.99888C191.535 1.8514 190.281 1.70835 189.027 1.64023C189.046 1.63729 189.064 1.63429 189.082 1.63125L189 1.13805L188.974 1.63736C188.992 1.6383 189.009 1.63926 189.027 1.64023C187.273 1.92258 185.351 1.75477 183.476 1.5911C183.361 1.58108 183.246 1.57108 183.132 1.56119C181.098 1.3854 179.12 1.24484 177.303 1.62733L177.266 1.63509L177.229 1.63724C175.659 1.7269 173.895 1.65844 172.13 1.58993C171.893 1.58073 171.656 1.57152 171.419 1.5627C169.404 1.4876 167.413 1.43963 165.655 1.63499L165.64 1.6367L165.624 1.63746C163.754 1.72871 161.965 1.65549 160.256 1.5855C160.067 1.57777 159.879 1.57008 159.693 1.56266C157.804 1.48762 156.014 1.43963 154.255 1.63499L154.209 1.64013L154.163 1.63665C150.875 1.39011 147.933 1.48399 144.907 1.58057C144.28 1.60055 143.651 1.62065 143.014 1.63787L143 1.63805C141.649 1.63805 140.334 1.66135 139.051 1.68407C136.581 1.72784 134.232 1.76945 131.985 1.63805C131.99 1.63805 131.995 1.63805 132 1.63805V1.13805L131.971 1.63719C131.976 1.63748 131.98 1.63776 131.985 1.63805C130.637 1.63736 129.334 1.5417 128.087 1.45021C127.52 1.40859 126.964 1.36783 126.422 1.33726C124.662 1.23811 122.993 1.24122 121.311 1.62548L121.218 1.64675L121.124 1.63224C118.568 1.23896 113.622 1.14132 110.682 1.63125L110.641 1.63805H110.6C108.723 1.63805 107.132 1.68041 105.742 1.71743C105.286 1.72956 104.852 1.74112 104.436 1.75043C102.764 1.78786 101.382 1.78924 100.143 1.63487L100.149 1.6354L100.2 1.13805L100.138 1.63419L100.143 1.63487C97.2851 1.33985 92.8219 1.4378 90.1369 1.63669L90.0649 1.64202L89.9943 1.62676Z" fill="#AFAFB1"/>
</svg>
