<svg width="304" height="304" viewBox="0 0 304 304" fill="none" xmlns="http://www.w3.org/2000/svg">
<circle cx="152" cy="152" r="152" fill="#D0DAF7"/>
<path d="M78 225.285H211.809L144.905 158.38L78 91.4758V225.285Z" stroke="#281F96" stroke-width="6.37187" stroke-linecap="round" stroke-linejoin="round"/>
<path d="M143.71 160.77L135.347 169.133M123.001 140.061L114.638 148.424M102.293 119.353L93.9297 127.716M182.738 199.798L174.375 208.161M163.224 180.284L154.861 188.647" stroke="#281F96" stroke-width="3.18593" stroke-linecap="round" stroke-linejoin="round"/>
<path d="M145.675 114.786L148.07 112.686C147.136 111.621 145.611 111.3 144.328 111.899L145.675 114.786ZM216.562 195.629L214.166 197.73L214.235 197.808L214.309 197.882L216.562 195.629ZM240.058 174.921L242.311 172.668L242.284 172.641L242.257 172.615L240.058 174.921ZM162.401 100.848L159.564 99.3978L158.483 101.513L160.202 103.153L162.401 100.848ZM124.966 62.2183L123.386 59.4521L119.804 61.4987L122.689 64.4468L124.966 62.2183ZM143.285 80.9357L145.704 78.8623L145.636 78.7824L145.562 78.7073L143.285 80.9357ZM126.957 96.4671L124.563 98.5685L124.631 98.6465L124.705 98.7199L126.957 96.4671ZM109.833 76.9533L112.228 74.8519L108.974 71.1441L106.933 75.6349L109.833 76.9533ZM117.798 110.406L115.545 112.658L117.798 110.406ZM143.279 116.887L214.166 197.73L218.957 193.529L148.07 112.686L143.279 116.887ZM214.309 197.882C217.482 201.055 221.664 202.858 226.364 202.542C231.007 202.229 235.759 199.878 240.275 195.536L235.859 190.943C232.091 194.566 228.68 195.999 225.935 196.184C223.248 196.365 220.819 195.38 218.815 193.377L214.309 197.882ZM240.275 195.536C244.877 191.112 246.819 186.612 246.698 182.347C246.578 178.165 244.489 174.846 242.311 172.668L237.805 177.174C239.211 178.579 240.269 180.438 240.328 182.529C240.386 184.536 239.541 187.403 235.859 190.943L240.275 195.536ZM242.257 172.615L164.6 98.5424L160.202 103.153L237.859 177.226L242.257 172.615ZM165.238 102.298C168.702 95.5198 171.861 78.9508 157.335 66.1961L153.131 70.9842C164.729 81.1683 162.206 94.2285 159.564 99.3978L165.238 102.298ZM157.335 66.1961C143.214 53.7977 129.171 56.1463 123.386 59.4521L126.547 64.9845C130.054 62.9805 141.126 60.4439 153.131 70.9842L157.335 66.1961ZM122.689 64.4468L141.009 83.1641L145.562 78.7073L127.243 59.9899L122.689 64.4468ZM140.866 83.0091C141.146 83.3352 141.665 84.2803 141.579 85.6558C141.499 86.9457 140.86 88.9471 138.307 91.3666L142.689 95.9923C146.188 92.6771 147.74 89.2359 147.939 86.0521C148.132 82.9541 147.018 80.3946 145.704 78.8623L140.866 83.0091ZM138.307 91.3666C135.546 93.9815 133.438 94.9156 132.049 95.1158C130.803 95.2953 129.923 94.9274 129.21 94.2143L124.705 98.7199C126.779 100.795 129.643 101.9 132.957 101.423C136.128 100.966 139.396 99.112 142.689 95.9923L138.307 91.3666ZM129.352 94.3657L112.228 74.8519L107.438 79.0547L124.563 98.5685L129.352 94.3657ZM106.933 75.6349C103.86 82.3951 101.656 98.769 115.545 112.658L120.051 108.153C108.453 96.5547 110.496 83.1932 112.733 78.2716L106.933 75.6349ZM115.545 112.658C126.04 123.153 140.421 120.754 147.022 117.673L144.328 111.899C138.981 114.394 127.875 115.977 120.051 108.153L115.545 112.658Z" fill="#281F96"/>
<circle cx="226.12" cy="183.284" r="5.97363" stroke="#281F96" stroke-width="3.18593"/>
</svg>
