<svg xmlns="http://www.w3.org/2000/svg" xmlns:xlink="http://www.w3.org/1999/xlink" viewBox="0 0 309.98 86.85"><defs><style>.cls-1,.cls-2{fill:none;}.cls-2{clip-rule:evenodd;}.cls-3{clip-path:url(#clip-path);}.cls-4{clip-path:url(#clip-path-2);}.cls-5{isolation:isolate;}.cls-6{clip-path:url(#clip-path-3);}.cls-7{clip-path:url(#clip-path-4);}.cls-8{fill:#ee7d00;}.cls-9{clip-path:url(#clip-path-6);}.cls-10{clip-path:url(#clip-path-8);}.cls-11{clip-path:url(#clip-path-9);}.cls-12{fill:#3c4646;}</style><clipPath id="clip-path"><rect class="cls-1" x="5" y="5" width="66.39" height="74.5"/></clipPath><clipPath id="clip-path-2"><rect class="cls-1" x="5" y="4.65" width="301" height="84"/></clipPath><clipPath id="clip-path-3"><rect class="cls-1" x="5" y="4.65" width="67" height="75"/></clipPath><clipPath id="clip-path-4"><path class="cls-2" d="M53.28,32.11a1.85,1.85,0,0,0,.39,2.59,1.85,1.85,0,0,0,2.58-.39,1.85,1.85,0,1,0-3-2.2m-9.37-2.25a2.2,2.2,0,0,0,0,.36,2.33,2.33,0,0,0,0,.37,1.5,1.5,0,0,0,.11.34,1,1,0,0,0,.17.32,1.93,1.93,0,0,0,.22.28,2,2,0,0,0,.28.23,2.24,2.24,0,0,0,.67.28,2.19,2.19,0,0,0,.36,0,2.1,2.1,0,0,0,.36,0,2,2,0,0,0,.35-.11,2,2,0,0,0,.32-.17,1.56,1.56,0,0,0,.28-.23,2,2,0,0,0,.23-.28,1.2,1.2,0,0,0,.16-.32,1.12,1.12,0,0,0,.11-.34,1.55,1.55,0,0,0,0-.37,1.47,1.47,0,0,0,0-.36,1.28,1.28,0,0,0-.11-.35,1.14,1.14,0,0,0-.16-.31,1.56,1.56,0,0,0-.23-.28,1.27,1.27,0,0,0-.28-.24,1.91,1.91,0,0,0-.32-.16,1.42,1.42,0,0,0-.35-.11,2.17,2.17,0,0,0-.72,0,1.23,1.23,0,0,0-.34.11,1.68,1.68,0,0,0-.33.16,1.55,1.55,0,0,0-.28.24,1.51,1.51,0,0,0-.22.28.94.94,0,0,0-.17.31,1.75,1.75,0,0,0-.11.35m-1.12-9.33a3,3,0,0,0,.85,2.08,3.33,3.33,0,0,0,.46.36,2.19,2.19,0,0,0,.5.27,3.47,3.47,0,0,0,.55.16,2.21,2.21,0,0,0,.57.06,2.29,2.29,0,0,0,.58-.06,3.8,3.8,0,0,0,.55-.16,2.7,2.7,0,0,0,.5-.27,3.13,3.13,0,0,0,.44-.36,3,3,0,0,0,.86-2.08,3.79,3.79,0,0,0,0-.58,3.86,3.86,0,0,0-.17-.55,4.82,4.82,0,0,0-.27-.5,2.6,2.6,0,0,0-.37-.45,2.94,2.94,0,0,0-2.64-.8,2.69,2.69,0,0,0-.55.17,3.38,3.38,0,0,0-.5.27,2.71,2.71,0,0,0-.46.36,3.94,3.94,0,0,0-.36.45,4.82,4.82,0,0,0-.27.5,3.8,3.8,0,0,0-.16.55,2.86,2.86,0,0,0-.06.58M29.37,51.07h0a1.85,1.85,0,0,0,1.76,1.3,1.77,1.77,0,0,0,.56-.09,1.85,1.85,0,1,0-1.12-3.52,1.85,1.85,0,0,0-1.2,2.32m-.28-4a1.88,1.88,0,0,0,1.3.54,1.37,1.37,0,0,0,.36,0,1.65,1.65,0,0,0,.36-.11,1.19,1.19,0,0,0,.31-.17,1.51,1.51,0,0,0,.28-.22,3.22,3.22,0,0,0,.24-.28c.06-.1.11-.21.17-.33a1.91,1.91,0,0,0,.1-.34,2.19,2.19,0,0,0,0-.36,2.1,2.1,0,0,0,0-.36,2,2,0,0,0-.1-.35c-.06-.11-.11-.22-.17-.32a2.2,2.2,0,0,0-.24-.28,1.9,1.9,0,0,0-2.61,0,1.23,1.23,0,0,0-.23.28,2,2,0,0,0-.17.32,2,2,0,0,0-.11.35,2.09,2.09,0,0,0,0,.36,2.2,2.2,0,0,0,0,.36,1.93,1.93,0,0,0,.11.34,1.71,1.71,0,0,0,.17.33,1.49,1.49,0,0,0,.23.28m.28-6.64A1.85,1.85,0,1,0,31.7,39.2a1.85,1.85,0,0,0-2.33,1.21m2.42-4.83a1.86,1.86,0,0,0,.43,2.58,1.89,1.89,0,0,0,1.08.34,1.85,1.85,0,0,0,1.07-3.36,1.87,1.87,0,0,0-2.58.44m3.4-1.27a1.84,1.84,0,0,0,1.49.75,1.85,1.85,0,1,0-1.49-.75m0,22.86a1.85,1.85,0,0,0,.39,2.59,1.85,1.85,0,0,0,2.58-.39,1.85,1.85,0,1,0-3-2.2m-1.89-.5a1.84,1.84,0,0,0,1.07-.34,1.86,1.86,0,1,0-1.07.34M29.18,68.5a2.93,2.93,0,1,0-.64-4.1,2.94,2.94,0,0,0,.64,4.1M19,54.44h0a2.93,2.93,0,0,0,2.79,2,2.77,2.77,0,0,0,.9-.14A2.93,2.93,0,1,0,19,54.44m4,7.84a2.93,2.93,0,1,0,.64-4.09A2.91,2.91,0,0,0,23,62.28M18.45,47.82a3,3,0,0,0,4.15,0,3,3,0,0,0,.86-2.08,3,3,0,0,0-.86-2.08,3,3,0,0,0-4.15,0,3,3,0,0,0-.86,2.08,3,3,0,0,0,.86,2.08M19,37a2.94,2.94,0,0,0,1.89,3.69,2.82,2.82,0,0,0,.9.14A2.93,2.93,0,1,0,19,37m4-7.84a2.93,2.93,0,1,0,4.09-.65A2.92,2.92,0,0,0,23,29.2M20.86,72.83a4.19,4.19,0,1,0,5.86-.92,4.21,4.21,0,0,0-5.86.92m-8.08-3.14h0a4.19,4.19,0,1,0,.92-5.85,4.17,4.17,0,0,0-.92,5.85M7,58.33a4.2,4.2,0,0,0,4,2.91,4.53,4.53,0,0,0,1.3-.21A4.2,4.2,0,1,0,7,58.33M9.19,41.54a4.2,4.2,0,0,0-3,7.17,4.26,4.26,0,0,0,3,1.23,3.91,3.91,0,0,0,.83-.09,3.69,3.69,0,0,0,.78-.24,3.35,3.35,0,0,0,.72-.39,4,4,0,0,0,.64-.51,4.2,4.2,0,0,0-3-7.17m3.08-11.09a4.19,4.19,0,1,0-2.59,8,4.52,4.52,0,0,0,1.29.21,4.2,4.2,0,0,0,1.3-8.19m6.37-9.59a4.2,4.2,0,1,0,.92,5.86,4.18,4.18,0,0,0-.92-5.86m9-7.16a4.19,4.19,0,1,0-3.38,6.67,4.14,4.14,0,0,0,2.46-.81,4.2,4.2,0,0,0,.92-5.86M29.18,23a2.93,2.93,0,0,0,3.46,4.74A2.93,2.93,0,0,0,29.18,23m9.24-13.3a4.19,4.19,0,1,0-4,5.5,3.93,3.93,0,0,0,1.3-.21,4.2,4.2,0,0,0,2.69-5.29m2.3,11.18a2.93,2.93,0,1,0-2.79,3.84,2.88,2.88,0,0,0,.91-.14,2.94,2.94,0,0,0,1.88-3.7m-.34,8.38A1.85,1.85,0,0,0,41,32.84a1.69,1.69,0,0,0,.58-.1,1.85,1.85,0,1,0-1.16-3.51m8.31-17.08a4.18,4.18,0,0,0,1.22-3,3.74,3.74,0,0,0-.08-.82,4.12,4.12,0,0,0-.23-.78,4.63,4.63,0,0,0-.39-.73,4,4,0,0,0-.52-.64,4.55,4.55,0,0,0-.64-.52,5,5,0,0,0-.72-.39,4.45,4.45,0,0,0-.79-.23,4.27,4.27,0,0,0-3.79,1.14,4,4,0,0,0-.52.64,3.89,3.89,0,0,0-.38.73,3.52,3.52,0,0,0-.24.78,3.74,3.74,0,0,0-.08.82,4.08,4.08,0,0,0,.32,1.61,3.81,3.81,0,0,0,.38.72,3.56,3.56,0,0,0,.52.63,4.18,4.18,0,0,0,5.94,0m2.38,17.08a1.85,1.85,0,1,0-1.16,3.51,1.58,1.58,0,0,0,.57.09,1.85,1.85,0,0,0,.59-3.6m-.34-8.38a2.93,2.93,0,0,0,1.88,3.7,2.86,2.86,0,0,0,.9.14,2.93,2.93,0,1,0-2.78-3.84M61,12.27A4.2,4.2,0,1,0,55.72,15a3.91,3.91,0,0,0,1.29.21,4.22,4.22,0,0,0,4-2.9M62.25,23a2.93,2.93,0,1,0,.65,4.1,2.93,2.93,0,0,0-.65-4.1m7.41-10.19a4.19,4.19,0,1,0-4.93,6.78,4.1,4.1,0,0,0,2.46.81,4.2,4.2,0,0,0,2.47-7.59"/></clipPath><clipPath id="clip-path-6"><rect class="cls-1" x="46.21" y="43.92" width="258.76" height="37.93"/></clipPath><clipPath id="clip-path-8"><rect class="cls-1" x="46" y="43.65" width="259" height="39"/></clipPath><clipPath id="clip-path-9"><path class="cls-2" d="M207,79.08h1.31V71.63H207Zm.08-10.18a.91.91,0,0,0,0,1.21.79.79,0,0,0,.59.24.77.77,0,0,0,.58-.24.91.91,0,0,0,0-1.21.77.77,0,0,0-.58-.24A.79.79,0,0,0,207.09,68.9Zm-7.78,6a2.52,2.52,0,0,1,.78-1.59,2.35,2.35,0,0,1,1.64-.6A2.16,2.16,0,0,1,204,74.86Zm-.84-1.45a4.3,4.3,0,0,0,0,3.91,3.34,3.34,0,0,0,1.33,1.33,4,4,0,0,0,1.95.47,4.45,4.45,0,0,0,1.71-.32,3.78,3.78,0,0,0,1.33-.92l-.72-.74a2.94,2.94,0,0,1-1,.67,3.14,3.14,0,0,1-1.23.24,2.43,2.43,0,0,1-2.52-2.18h5.88a3.87,3.87,0,0,0,0-.42,4.2,4.2,0,0,0-.89-2.84,3.29,3.29,0,0,0-2.62-1,3.74,3.74,0,0,0-1.93.49A3.51,3.51,0,0,0,198.47,73.41Zm-26.08-1.78h-1.31v7.45h1.31v-4a2.48,2.48,0,0,1,.71-1.63,2.25,2.25,0,0,1,1.63-.64,1.83,1.83,0,0,1,2,2v4.25H178v-4.6a2.9,2.9,0,0,0-.75-2.12,2.72,2.72,0,0,0-2.05-.77,2.88,2.88,0,0,0-2.83,1.62ZM153.71,59.79h3.16v-11h-3.16ZM136.27,71.61a4.83,4.83,0,0,0-.69,2.53,5,5,0,0,0,.68,2.54,5.05,5.05,0,0,0,1.87,1.83,5.28,5.28,0,0,0,2.61.67,6.08,6.08,0,0,0,2-.35,6,6,0,0,0,1.75-1V74.27h-1.2v2.92a4.35,4.35,0,0,1-1.19.57,4.06,4.06,0,0,1-1.26.21,3.74,3.74,0,0,1-1.94-.52,3.84,3.84,0,0,1-1.41-1.39,3.69,3.69,0,0,1-.52-1.92,3.75,3.75,0,0,1,.51-1.92,3.68,3.68,0,0,1,1.4-1.37,3.84,3.84,0,0,1,1.95-.51,4.33,4.33,0,0,1,1.57.3,4.46,4.46,0,0,1,1.36.85l.77-1a5.42,5.42,0,0,0-1.7-1,5.53,5.53,0,0,0-2-.37,5.4,5.4,0,0,0-2.65.66A5,5,0,0,0,136.27,71.61Zm-12.61,3.77A2.83,2.83,0,0,1,124,74a2.39,2.39,0,0,1,2.2-1.29,2.56,2.56,0,0,1,1.3.33,2.33,2.33,0,0,1,.89,1,3,3,0,0,1,0,2.74,2.33,2.33,0,0,1-.89,1,2.75,2.75,0,0,1-2.61,0,2.4,2.4,0,0,1-.89-1A2.79,2.79,0,0,1,123.66,75.38Zm-.88-2a4.07,4.07,0,0,0-.45,2,4.18,4.18,0,0,0,.45,2A3.29,3.29,0,0,0,124,78.66a3.5,3.5,0,0,0,1.87.49,3.25,3.25,0,0,0,1.65-.4,2.93,2.93,0,0,0,1.14-1.15v1.48H130V68.64H128.7v4.47A2.82,2.82,0,0,0,127.57,72a3.47,3.47,0,0,0-1.68-.39,3.57,3.57,0,0,0-1.85.48A3.24,3.24,0,0,0,122.78,73.39ZM84,71.63H82.7v7.45H84v-4a2.48,2.48,0,0,1,.71-1.63,2.22,2.22,0,0,1,1.62-.64,1.84,1.84,0,0,1,2,2v4.25h1.31v-4.6a2.9,2.9,0,0,0-.75-2.12,2.74,2.74,0,0,0-2-.77A2.87,2.87,0,0,0,84,73.21ZM64.57,75.38A2.83,2.83,0,0,1,64.9,74a2.4,2.4,0,0,1,.89-1,2.47,2.47,0,0,1,1.3-.34,2.58,2.58,0,0,1,1.31.33,2.4,2.4,0,0,1,.89,1,3,3,0,0,1,0,2.74,2.4,2.4,0,0,1-.89,1,2.75,2.75,0,0,1-2.61,0,2.33,2.33,0,0,1-.89-1A2.79,2.79,0,0,1,64.57,75.38Zm-.87-2a4.07,4.07,0,0,0-.45,2,4.18,4.18,0,0,0,.45,2A3.29,3.29,0,0,0,65,78.66a3.5,3.5,0,0,0,1.87.49,3.25,3.25,0,0,0,1.65-.4,3,3,0,0,0,1.14-1.15v1.48h1.3V68.64h-1.3v4.47A2.82,2.82,0,0,0,68.49,72a3.47,3.47,0,0,0-1.68-.39,3.57,3.57,0,0,0-1.85.48A3.24,3.24,0,0,0,63.7,73.39Zm-7.59,5.69h1.31V71.63H56.11Zm.07-10.18a.91.91,0,0,0,0,1.21.79.79,0,0,0,.59.24.77.77,0,0,0,.58-.24.88.88,0,0,0,0-1.21.77.77,0,0,0-.58-.24A.79.79,0,0,0,56.18,68.9Zm-5.83,1.57a2.28,2.28,0,0,1,1.42.36,1.3,1.3,0,0,1,.5,1.09,1.33,1.33,0,0,1-.5,1.1,2.28,2.28,0,0,1-1.42.39H47.57V70.47Zm-2.78,4.16h2.78a3,3,0,0,1,1.72.42,1.36,1.36,0,0,1,.62,1.17,1.37,1.37,0,0,1-.62,1.2,2.87,2.87,0,0,1-1.72.42H47.57Zm2.85-5.4H46.21v9.85h4.28a4.33,4.33,0,0,0,2.63-.71,2.34,2.34,0,0,0,1-2,2.44,2.44,0,0,0-.58-1.67,2.58,2.58,0,0,0-1.62-.82,2.3,2.3,0,0,0,1.31-.78,2.19,2.19,0,0,0,.48-1.43,2.16,2.16,0,0,0-.86-1.81A3.91,3.91,0,0,0,50.42,69.23ZM56,59.79h3.23V45.45H56v6h-6.5v-6H46.21V59.79h3.24V54.14H56ZM60,79.08h1.31V68.64H60ZM68.37,56a1.9,1.9,0,0,1-.86,1.19,3.07,3.07,0,0,1-1.7.47,1.91,1.91,0,0,1-1.26-.38,1.24,1.24,0,0,1-.47-1,1.09,1.09,0,0,1,.44-1A2.59,2.59,0,0,1,65.89,55h2.48Zm0,3.77h3.09l0-7.19a3.69,3.69,0,0,0-1.24-2.91,5.15,5.15,0,0,0-3.43-1,9.45,9.45,0,0,0-2.52.31,12.42,12.42,0,0,0-2.46,1l1,2.17a6.85,6.85,0,0,1,3.28-1,2.64,2.64,0,0,1,1.71.48A1.66,1.66,0,0,1,68.37,53v.2h-3a5,5,0,0,0-3.1.89,3,3,0,0,0-1.1,2.43,3.24,3.24,0,0,0,1,2.49,3.9,3.9,0,0,0,2.76,1,5.11,5.11,0,0,0,2-.37,3.52,3.52,0,0,0,1.44-1.06Zm6.24,11.84H73.3v4.61A2.92,2.92,0,0,0,74,78.35a2.62,2.62,0,0,0,2,.77,2.79,2.79,0,0,0,2.76-1.62v1.58h1.33V71.63H78.82v3.66a2.75,2.75,0,0,1-.61,1.85,2.08,2.08,0,0,1-1.65.74,1.86,1.86,0,0,1-1.42-.53,2,2,0,0,1-.51-1.47Zm7.14-11.84h3.16V52.87a4.28,4.28,0,0,0-1.1-3.08,3.89,3.89,0,0,0-2.94-1.14,4.11,4.11,0,0,0-3.81,2.05V48.77H73.92v11h3.16V54.36a3,3,0,0,1,.68-2,2.35,2.35,0,0,1,1.84-.8,2.12,2.12,0,0,1,1.59.6,2.26,2.26,0,0,1,.58,1.65Zm8.2-8a.65.65,0,0,1,.35-.61,1.74,1.74,0,0,1,.92-.21,5.11,5.11,0,0,1,1.57.28A9,9,0,0,1,94.6,52l1.08-2.15A7.19,7.19,0,0,0,93.63,49a7.94,7.94,0,0,0-2.25-.32,5.12,5.12,0,0,0-3.11.9A3,3,0,0,0,87,52.07a2.65,2.65,0,0,0,.53,1.73,3.33,3.33,0,0,0,1.28,1,15.64,15.64,0,0,0,1.87.66,7.42,7.42,0,0,1,1.55.57.82.82,0,0,1,.48.74.68.68,0,0,1-.38.64,2,2,0,0,1-1,.22,6,6,0,0,1-2-.36,6.62,6.62,0,0,1-1.87-1l-1,2.13a6.63,6.63,0,0,0,2.18,1.13,8.36,8.36,0,0,0,2.6.4A5.33,5.33,0,0,0,94.5,59a3,3,0,0,0,1.27-2.55,2.64,2.64,0,0,0-.56-1.75,3.53,3.53,0,0,0-1.31-1A14.74,14.74,0,0,0,92,53a8.75,8.75,0,0,1-1.53-.55A.76.76,0,0,1,90,51.76Zm7.27,23.42a2.73,2.73,0,0,1-.3,1.29,2.19,2.19,0,0,1-.84.89,2.28,2.28,0,0,1-1.22.33A2.25,2.25,0,0,1,93.16,77a2.59,2.59,0,0,1-.68-1.8,2.63,2.63,0,0,1,.31-1.3,2.37,2.37,0,0,1,.85-.9,2.44,2.44,0,0,1,1.24-.32A2.36,2.36,0,0,1,96.1,73a2.28,2.28,0,0,1,.84.9A2.74,2.74,0,0,1,97.24,75.18Zm0-2.18a2.72,2.72,0,0,0-1.06-1,3.16,3.16,0,0,0-1.56-.37,3.48,3.48,0,0,0-1.77.45,3.09,3.09,0,0,0-1.18,1.25,3.83,3.83,0,0,0-.43,1.85A3.91,3.91,0,0,0,91.67,77a3.08,3.08,0,0,0,1.18,1.27,3.39,3.39,0,0,0,1.77.46,3.14,3.14,0,0,0,1.55-.37,2.77,2.77,0,0,0,1.07-1.05v1a2.26,2.26,0,0,1-.69,1.73,2.58,2.58,0,0,1-1.84.65,3.66,3.66,0,0,1-1.3-.22,4,4,0,0,1-1.14-.67l-.58,1a5.12,5.12,0,0,0,3.07,1,4.36,4.36,0,0,0,2-.43,3,3,0,0,0,1.33-1.23,3.56,3.56,0,0,0,.47-1.87V71.63H97.24Zm8.11-19.62h-5a3,3,0,0,1,.87-1.75,2.41,2.41,0,0,1,1.71-.65,2.35,2.35,0,0,1,1.74.66A2.51,2.51,0,0,1,105.35,53.38Zm3,1.86c0-.17,0-.43,0-.76a6.2,6.2,0,0,0-1.38-4.28,5.2,5.2,0,0,0-4-1.53,5.94,5.94,0,0,0-3,.71,5,5,0,0,0-2,2,6.42,6.42,0,0,0,0,5.89,4.89,4.89,0,0,0,2,2,6.4,6.4,0,0,0,3,.69,7,7,0,0,0,2.68-.5,5.66,5.66,0,0,0,2-1.44L106,56.29a4,4,0,0,1-1.29.87,3.77,3.77,0,0,1-1.49.29,2.78,2.78,0,0,1-2.85-2.21Zm1.61,23.84h1.33V71.63h-1.33v3.66a2.75,2.75,0,0,1-.61,1.85,2.08,2.08,0,0,1-1.65.74,1.86,1.86,0,0,1-1.42-.53,2,2,0,0,1-.51-1.47V71.63h-1.33v4.61a2.92,2.92,0,0,0,.74,2.11,2.62,2.62,0,0,0,2,.77,2.79,2.79,0,0,0,2.76-1.62Zm5.33-19.29h3.24V45.45h-3.24Zm4.18,19.29h1.31v-4.6a2.9,2.9,0,0,0-.75-2.12,2.74,2.74,0,0,0-2-.77,2.9,2.9,0,0,0-2.84,1.62V71.63h-1.3v7.45h1.3v-4a2.54,2.54,0,0,1,.72-1.63,2.22,2.22,0,0,1,1.62-.64,1.84,1.84,0,0,1,2,2Zm9.46-19.29H132V52.87a4.28,4.28,0,0,0-1.09-3.08A3.89,3.89,0,0,0,128,48.65a4.11,4.11,0,0,0-3.81,2.05V48.77H121v11h3.16V54.36a3,3,0,0,1,.67-2,2.37,2.37,0,0,1,1.85-.8,2.12,2.12,0,0,1,1.59.6,2.3,2.3,0,0,1,.58,1.65Zm8.19-8a.66.66,0,0,1,.35-.61,1.79,1.79,0,0,1,.92-.21,5.12,5.12,0,0,1,1.58.28,9.24,9.24,0,0,1,1.79.79l1.08-2.15a7.32,7.32,0,0,0-2-.91,7.94,7.94,0,0,0-2.25-.32,5.15,5.15,0,0,0-3.12.9,3,3,0,0,0-1.23,2.54,2.65,2.65,0,0,0,.54,1.73,3.33,3.33,0,0,0,1.28,1,15.64,15.64,0,0,0,1.87.66,7.65,7.65,0,0,1,1.55.57.82.82,0,0,1,.48.74.7.7,0,0,1-.38.64,2,2,0,0,1-1,.22,6,6,0,0,1-2-.36,6.62,6.62,0,0,1-1.87-1l-1,2.13a6.68,6.68,0,0,0,2.17,1.13,8.43,8.43,0,0,0,2.61.4,5.33,5.33,0,0,0,3.22-.91,3,3,0,0,0,1.26-2.55,2.64,2.64,0,0,0-.55-1.75,3.61,3.61,0,0,0-1.31-1,15.29,15.29,0,0,0-1.93-.69,8.75,8.75,0,0,1-1.53-.55A.77.77,0,0,1,137.07,51.76ZM148.61,56V51.45h3V49.26h-3v-3h-3.14v3h-1.53v2.17h1.53v5.1a3.25,3.25,0,0,0,1,2.52,3.53,3.53,0,0,0,2.5.88,5.93,5.93,0,0,0,1.5-.19,5.07,5.07,0,0,0,1.37-.57l-.66-2.31a3.59,3.59,0,0,1-1.54.41C148.94,57.27,148.61,56.85,148.61,56Zm3.6,18.86h-4.73a2.47,2.47,0,0,1,.78-1.59,2.35,2.35,0,0,1,1.64-.6,2.16,2.16,0,0,1,2.31,2.19Zm1.17,1c0-.09,0-.23,0-.42a4.2,4.2,0,0,0-.88-2.84,3.29,3.29,0,0,0-2.62-1,3.74,3.74,0,0,0-1.93.49,3.51,3.51,0,0,0-1.32,1.33,4.3,4.3,0,0,0,0,3.91A3.34,3.34,0,0,0,148,78.65a4,4,0,0,0,1.95.47,4.49,4.49,0,0,0,1.71-.32,3.78,3.78,0,0,0,1.33-.92l-.72-.74a2.94,2.94,0,0,1-1,.67,3.15,3.15,0,0,1-1.24.24,2.51,2.51,0,0,1-1.68-.59,2.58,2.58,0,0,1-.84-1.59ZM156.52,47a1.92,1.92,0,0,0,0-2.54,1.76,1.76,0,0,0-2.46,0,1.73,1.73,0,0,0-.48,1.27,1.77,1.77,0,0,0,.48,1.26,1.64,1.64,0,0,0,1.22.5A1.68,1.68,0,0,0,156.52,47Zm2.36,24.81a4.65,4.65,0,0,0-1.33-.19,3.25,3.25,0,0,0-1.9.52,1.76,1.76,0,0,0-.76,1.56,1.74,1.74,0,0,0,.33,1.1,2.25,2.25,0,0,0,.8.64,8.75,8.75,0,0,0,1.22.43,6.4,6.4,0,0,1,1.26.5.83.83,0,0,1,.41.76.81.81,0,0,1-.39.74,2,2,0,0,1-1,.24,3.78,3.78,0,0,1-1.33-.26,3.49,3.49,0,0,1-1.15-.67l-.49,1a3.46,3.46,0,0,0,1.31.76,4.92,4.92,0,0,0,1.62.27,3.36,3.36,0,0,0,2-.55,2,2,0,0,0,.45-2.76,2.29,2.29,0,0,0-.83-.66,9.45,9.45,0,0,0-1.27-.45,5.55,5.55,0,0,1-1.22-.47.79.79,0,0,1,0-1.35,1.78,1.78,0,0,1,.95-.22,3.71,3.71,0,0,1,1.06.17,4.27,4.27,0,0,1,1,.45l.48-1A4,4,0,0,0,158.88,71.77ZM163.53,56V51.45h3V49.26h-3v-3h-3.14v3h-1.54v2.17h1.54v5.1a3.24,3.24,0,0,0,1,2.52,3.57,3.57,0,0,0,2.5.88,6,6,0,0,0,1.51-.19,5,5,0,0,0,1.36-.57l-.65-2.31a3.62,3.62,0,0,1-1.54.41C163.86,57.27,163.53,56.85,163.53,56Zm3.68,15.63v3.66a2.76,2.76,0,0,1-.62,1.85,2.06,2.06,0,0,1-1.65.74,1.84,1.84,0,0,1-1.41-.53,2,2,0,0,1-.52-1.47V71.63h-1.32v4.61a2.91,2.91,0,0,0,.73,2.11,2.64,2.64,0,0,0,2,.77,2.81,2.81,0,0,0,2.76-1.62v1.58h1.32V71.63ZM176,59.79h3.14v-11H176v5.45a3.05,3.05,0,0,1-.65,2,2.3,2.3,0,0,1-1.79.79,1.94,1.94,0,0,1-1.51-.59,2.31,2.31,0,0,1-.56-1.64v-6H168.3v6.92a4.35,4.35,0,0,0,1.07,3.09,4.31,4.31,0,0,0,6.59-.94ZM181.27,74a2.49,2.49,0,0,1,.9-1,2.45,2.45,0,0,1,1.3-.34,2.54,2.54,0,0,1,1.3.33,2.42,2.42,0,0,1,.9,1,3.09,3.09,0,0,1,0,2.74,2.42,2.42,0,0,1-.9,1,2.73,2.73,0,0,1-2.6,0,2.42,2.42,0,0,1-.9-1,2.9,2.9,0,0,1-.32-1.36A2.94,2.94,0,0,1,181.27,74Zm.07-2a3.24,3.24,0,0,0-1.26,1.33,4.07,4.07,0,0,0-.45,2,4.18,4.18,0,0,0,.45,2,3.29,3.29,0,0,0,1.26,1.35,3.49,3.49,0,0,0,1.86.49,3.32,3.32,0,0,0,1.66-.4A3,3,0,0,0,186,77.6v1.48h1.31V68.64H186v4.47A2.76,2.76,0,0,0,184.86,72a3.41,3.41,0,0,0-1.67-.39A3.54,3.54,0,0,0,181.34,72.06ZM185.78,56V51.45h3V49.26h-3v-3h-3.14v3H181.1v2.17h1.54v5.1a3.24,3.24,0,0,0,1,2.52,3.57,3.57,0,0,0,2.5.88,6,6,0,0,0,1.51-.19,5,5,0,0,0,1.36-.57l-.65-2.31a3.62,3.62,0,0,1-1.54.41C186.11,57.27,185.78,56.85,185.78,56Zm9.87,16.36a2.75,2.75,0,0,0-2.06-.77,2.89,2.89,0,0,0-2.84,1.65v-4.6h-1.31V79.08h1.31V75.42a2.72,2.72,0,0,1,.63-1.86,2.23,2.23,0,0,1,1.72-.73,1.84,1.84,0,0,1,2,2v4.25h1.31v-4.6A2.9,2.9,0,0,0,195.65,72.36ZM206.8,52.6a4.75,4.75,0,0,1-.59,2.33,4.32,4.32,0,0,1-1.58,1.65,4.05,4.05,0,0,1-2.18.61,4.18,4.18,0,0,1-2.2-.62,4.68,4.68,0,0,1-1.63-6.26,4.42,4.42,0,0,1,1.62-1.65,4.3,4.3,0,0,1,2.21-.61,4.14,4.14,0,0,1,2.18.61,4.32,4.32,0,0,1,1.58,1.65A4.59,4.59,0,0,1,206.8,52.6Zm2.3,3.77a7.29,7.29,0,0,0-2.78-10.18,8.46,8.46,0,0,0-7.83,0,7.31,7.31,0,0,0,0,12.85,8.37,8.37,0,0,0,7.82,0A7.21,7.21,0,0,0,209.1,56.37Zm2,13.52v2h-1.06v1h1.06V77a2.11,2.11,0,0,0,.55,1.6,2,2,0,0,0,1.43.53,3.25,3.25,0,0,0,1.75-.55l-.35-1a2.33,2.33,0,0,1-1.16.35.81.81,0,0,1-.67-.26,1.4,1.4,0,0,1-.23-.89V72.89h2.28v-1h-2.28v-2Zm1.15-10.1h3.15V44.59h-3.15Zm14.05-5.47a3.11,3.11,0,0,1-.77,2.2,2.52,2.52,0,0,1-2,.85,2.56,2.56,0,0,1-2-.85,3.46,3.46,0,0,1,0-4.4,2.56,2.56,0,0,1,2-.85,2.52,2.52,0,0,1,2,.85A3.13,3.13,0,0,1,226.34,54.32Zm0,5.47h3.14V44.59h-3.14v5.8a4.09,4.09,0,0,0-3.56-1.74,5.2,5.2,0,0,0-2.69.69,4.64,4.64,0,0,0-1.8,2,7.17,7.17,0,0,0,0,5.9,4.83,4.83,0,0,0,1.82,2,5.25,5.25,0,0,0,2.74.7,4.37,4.37,0,0,0,2-.44,3.89,3.89,0,0,0,1.47-1.3Zm13.48-6.41h-5a3.07,3.07,0,0,1,.87-1.75,2.42,2.42,0,0,1,1.72-.65,2.35,2.35,0,0,1,1.74.66A2.5,2.5,0,0,1,239.82,53.38Zm3,1.86c0-.17,0-.43,0-.76a6.2,6.2,0,0,0-1.38-4.28,5.18,5.18,0,0,0-4-1.53,6,6,0,0,0-3,.71,5,5,0,0,0-2,2,6.42,6.42,0,0,0,0,5.89,4.93,4.93,0,0,0,2,2,6.44,6.44,0,0,0,3,.69,6.94,6.94,0,0,0,2.67-.5,5.61,5.61,0,0,0,2-1.44l-1.66-1.68a4,4,0,0,1-1.29.87,3.85,3.85,0,0,1-1.5.29,2.87,2.87,0,0,1-1.82-.58,2.8,2.8,0,0,1-1-1.63Zm9.94,4.55h3.16V52.87a4.28,4.28,0,0,0-1.1-3.08,3.89,3.89,0,0,0-2.94-1.14A4.11,4.11,0,0,0,248,50.7V48.77h-3.16v11H248V54.36a3,3,0,0,1,.67-2,2.38,2.38,0,0,1,1.85-.8,2.12,2.12,0,0,1,1.59.6,2.26,2.26,0,0,1,.58,1.65Zm14.61-5.55a3.17,3.17,0,0,1-.76,2.2,2.49,2.49,0,0,1-2,.85,2.55,2.55,0,0,1-2-.84,3.12,3.12,0,0,1-.77-2.21,3.08,3.08,0,0,1,.77-2.18,2.52,2.52,0,0,1,2-.85,2.49,2.49,0,0,1,2,.85A3.11,3.11,0,0,1,267.32,54.24Zm2.56,3a6.44,6.44,0,0,0,.64-2.92,6.56,6.56,0,0,0-.65-3,4.75,4.75,0,0,0-1.82-2,5.11,5.11,0,0,0-2.72-.71,4.52,4.52,0,0,0-2,.44,3.87,3.87,0,0,0-1.48,1.28v-5.8h-3.16v15.2h3.16v-1.6a4.08,4.08,0,0,0,1.5,1.28,4.5,4.5,0,0,0,2,.44,5.16,5.16,0,0,0,2.7-.69A4.72,4.72,0,0,0,269.88,57.26Zm10.06,2.53h3.13v-11h-3.13v5.45a3,3,0,0,1-.66,2,2.26,2.26,0,0,1-1.78.79,1.93,1.93,0,0,1-1.51-.59,2.31,2.31,0,0,1-.56-1.64v-6h-3.15v6.92a4.35,4.35,0,0,0,1.07,3.09,4.31,4.31,0,0,0,6.59-.94Zm12.5-8.19a3.19,3.19,0,0,1,.49,0v-3a4.37,4.37,0,0,0-2.15.55,4,4,0,0,0-1.5,1.56v-2h-3.15v11h3.15V54.48a2.73,2.73,0,0,1,.85-2.09A3.26,3.26,0,0,1,292.44,51.6Zm9.4,2.37a2.92,2.92,0,0,1-.72,2.06,2.6,2.6,0,0,1-3.73,0,3,3,0,0,1-.73-2.06,3.06,3.06,0,0,1,.74-2.07,2.58,2.58,0,0,1,3.72,0A3,3,0,0,1,301.84,54ZM305,58.76v-10h-3.14v1.5a3.91,3.91,0,0,0-1.41-1.18,4.22,4.22,0,0,0-1.91-.42,4.86,4.86,0,0,0-2.51.65,4.45,4.45,0,0,0-1.7,1.84,5.91,5.91,0,0,0-.6,2.73,6.22,6.22,0,0,0,.6,2.79,4.47,4.47,0,0,0,1.7,1.87,4.78,4.78,0,0,0,2.51.67,4.38,4.38,0,0,0,1.93-.41,3.71,3.71,0,0,0,1.39-1.19v1.25a2.18,2.18,0,0,1-.8,1.79,3.27,3.27,0,0,1-2.15.66,5.76,5.76,0,0,1-3.42-1.1l-1.17,2.21a8.41,8.41,0,0,0,4.8,1.45,7.1,7.1,0,0,0,3.07-.62,4.82,4.82,0,0,0,2.07-1.78A5,5,0,0,0,305,58.76Z"/></clipPath></defs><title>HIO_Logo_Grau_Orange</title><g id="Ebene_2" data-name="Ebene 2"><g id="Ebene_1-2" data-name="Ebene 1"><g class="cls-3"><g class="cls-4"><g class="cls-5"><g class="cls-6"><g class="cls-7"><g class="cls-6"><rect class="cls-8" width="76.39" height="84.5"/></g></g></g></g></g></g><g class="cls-9"><g class="cls-4"><g class="cls-5"><g class="cls-10"><g class="cls-11"><g class="cls-10"><rect class="cls-12" x="41.21" y="38.92" width="268.76" height="47.93"/></g></g></g></g></g></g></g></g></svg>