<svg width="48" height="48" viewBox="0 0 48 48" fill="none" xmlns="http://www.w3.org/2000/svg">
<circle cx="24" cy="24" r="24" fill="#FFE68B"/>
<path d="M27 20.9998H27.01M28.555 15.8428L32.157 19.4448C32.4242 19.712 32.6362 20.0291 32.7808 20.3782C32.9254 20.7273 32.9998 21.1015 32.9998 21.4793C32.9998 21.8572 32.9254 22.2313 32.7808 22.5804C32.6362 22.9295 32.4242 23.2466 32.157 23.5138L29.514 26.1568C29.2468 26.424 28.9297 26.636 28.5806 26.7806C28.2315 26.9252 27.8573 26.9996 27.4795 26.9996C27.1017 26.9996 26.7275 26.9252 26.3784 26.7806C26.0293 26.636 25.7122 26.424 25.445 26.1568L25.144 25.8558L18.586 32.4138C18.2537 32.746 17.8151 32.9507 17.347 32.9918L17.172 32.9998H16C15.7551 32.9998 15.5187 32.9099 15.3356 32.7471C15.1526 32.5843 15.0357 32.3601 15.007 32.1168L15 31.9998V30.8278C15.0001 30.3583 15.1654 29.9037 15.467 29.5438L15.586 29.4138L16 28.9998H18V26.9998H20V24.9998L22.144 22.8558L21.843 22.5548C21.5758 22.2876 21.3638 21.9705 21.2192 21.6214C21.0746 21.2723 21.0002 20.8982 21.0002 20.5203C21.0002 20.1425 21.0746 19.7683 21.2192 19.4192C21.3638 19.0701 21.5758 18.753 21.843 18.4858L24.486 15.8428C24.7532 15.5756 25.0703 15.3637 25.4194 15.219C25.7685 15.0744 26.1427 15 26.5205 15C26.8983 15 27.2725 15.0744 27.6216 15.219C27.9707 15.3637 28.2878 15.5756 28.555 15.8428Z" stroke="#CA7E04" stroke-width="1.5" stroke-linecap="round" stroke-linejoin="round"/>
</svg>
