<svg width="304" height="304" viewBox="0 0 304 304" fill="none" xmlns="http://www.w3.org/2000/svg">
<circle cx="152" cy="152" r="152" fill="#D0DAF7"/>
<circle cx="108.257" cy="215.351" r="16.3378" stroke="#281F96" stroke-width="8.43243"/>
<circle cx="173.608" cy="215.351" r="16.3378" stroke="#281F96" stroke-width="8.43243"/>
<path d="M92.4459 185.311H188.892L192.973 165.811M230 72H212.608L207.203 97.8243M207.203 97.8243H74L77.3174 113.108M207.203 97.8243L204.004 113.108M192.973 165.811L198.489 139.459M192.973 165.811H155.689M77.3174 113.108L83.0371 139.459M77.3174 113.108H116.503M204.004 113.108L198.489 139.459M204.004 113.108H155.689M83.0371 139.459L88.7568 165.811H116.503M83.0371 139.459H198.489M155.689 113.108V165.811M155.689 113.108H116.503M155.689 165.811H116.503M116.503 113.108V165.811" stroke="#281F96" stroke-width="8.43243" stroke-linecap="round" stroke-linejoin="round"/>
</svg>
