<?xml version="1.0" encoding="UTF-8"?><svg id="Layer_1" xmlns="http://www.w3.org/2000/svg" viewBox="0 0 800 800"><defs><style>.cls-1{fill:#fbafb2;}.cls-2{fill:#5c67e6;}.cls-3{fill:#a86102;}.cls-4{stroke:#96aafa;}.cls-4,.cls-5,.cls-6,.cls-7,.cls-8,.cls-9,.cls-10{fill:none;stroke-linejoin:bevel;stroke-width:2px;}.cls-11{fill:#fbcc15;}.cls-5{stroke:#a86102;}.cls-12{fill:#fccc14;}.cls-13{fill:#687595;}.cls-6{stroke:#fbcc15;}.cls-7{stroke:#000;}.cls-14{fill:#4badb0;}.cls-15{fill:#96aafa;}.cls-8{stroke:#e5a22e;}.cls-16{fill:#e5a22e;}.cls-9{stroke:#fbafb2;}.cls-17{fill:#ffe68b;}.cls-10{stroke:#5c67e6;}</style></defs><path class="cls-7" d="M48.48,636.71l-23.57,32.01,72.4,53.3s8.16-5.54-.47-23.67c-8.62-18.12-6.35-33.21-6.35-33.21"/><path d="M48.48,636.71l-23.57,32.01,72.4,53.3s8.16-5.54-.47-23.67c-8.62-18.12-6.35-33.21-6.35-33.21"/><path class="cls-7" d="M175.31,672.85v39.76h89.91s3.28-9.3-14.41-18.78c-17.69-9.48-24.8-22.98-24.8-22.98"/><path d="M175.56,671.88l-.48,41.6h89.91s3.28-9.3-14.41-18.78c-17.69-9.48-24.8-22.98-24.8-22.98l-50.22.16Z"/><path class="cls-16" d="M194.73,465.7l20.3,55.88c23.84,71.66,15.27,148.99,15.27,148.99l-64.31,1.85s-.46-12.03-3.7-52.75c-3.24-40.72-28.22-95.31-28.22-95.31l18.04,49.04c-11.57,35.63-51.82,98.55-51.82,98.55l-53.67-37.48s1.39-5.09,17.12-36.09c15.73-31,27.1-68.42,27.24-77.02.24-14.96-1.5-23.83-2.8-49.09l11.69,12.67,11.77,7.37,12.9,1.13,16.02-5.25,16.32-10.25,16.15-12.87,12.19-5.81,9.51,6.41Z"/><path d="M202.63,276.82c-.07-.03-.15-.07-.22-.11-3.86-1.87-8.08-2.88-12.37-2.97-9.99-.21-27.52,1.48-36.94,14.56-9.57,13.27-5.39,27.41,1.26,35.84,1.7,2.15,13.32,15.41,10.02,19.47,0,0,3.72,2.92,7.78,2.78l18.97-.51,17.46-48.19-5.95-20.86Z"/><path class="cls-7" d="M88.21,468.87l-19.28-36.39c-.95-1.83-1.7-3.75-2.25-5.73h0c-2.2-8-.89-16.56,3.61-23.54l.1-.15c.78-1.21,1.65-2.37,2.6-3.45l36.26-41.35s12.78-12.96,25.21-15.79c15.86-3.62,30.13,1.17,30.13,1.17"/><path class="cls-1" d="M622.59,272.03c-2.58,0-5.09.28-7.51.81l-6.17-5.68c-.73-.67-1.78-.86-2.69-.5h0c-.89.36-1.51,1.18-1.6,2.13l-.87,8.71c-10.04,6.37-16.73,17.67-16.73,30.56,0,19.9,15.93,36.03,35.57,36.03s35.57-16.13,35.57-36.03-15.93-36.03-35.57-36.03Z"/><path class="cls-1" d="M576.56,277.05l-31.18-70.59s4.79-8.85,1.24-20.83c-4.41-14.87-4.04-18.46-7.92-18.1-1.76.17-4.4,1.94-4.4,5.78,0,5.32.24,13.96.24,13.96l-20.8-20.8c-.58-.58-1.19-1.13-1.82-1.66l-1.05-.87c-3.83-2.64-5.94,1.61-5.94,1.61-.64,1.6-.34,3.52.95,4.86l-4.27-1.97-3.62,1.33v3.84l5.6,6.29,8.37,11.03-14.97-9.81-4.64.8-.69,4.32,6.33,4.83c-.94-.51-2.02-.78-2.76-.58-4.52,1.18-2.95,6.01-1.26,7.31.11.09.21.19.32.28,3.31,2.52,9.33,7.06,13.65,10.17,6.27,4.5,10.86,13.92,10.86,13.92l25.19,68.76"/><path class="cls-13" d="M391.18,322.86l-36.91-21.97-88.72,2.67c-5.6,8.4-6.17,16.19-6.23,19.84"/><path class="cls-15" d="M457.13,65.16v49.73l3.96,1.6-.45,5.8-2.21,19.4,7.64,6.39-.91-7.38,2.61-3.35,3.72,1,10.97,18.2-1.06,9.56h24.1c.02-.1.06-.19.1-.28.07-.21.19-.4.36-.56.03-.02.06-.04.08-.07,0-.02,0-.04,0-.06.02-.15.04-.31.06-.46.05-.22.16-.42.31-.59.12-.19.28-.34.48-.44.2-.13.41-.19.64-.2.23-.05.46-.04.69.03.12.03.24.07.35.12.26.11.52.21.77.35.24.14.46.32.67.49.21.17,1.04.1,1.2.31.03.06,1.37.41,1.39.47.34.25.65.54.9.89h258.86v-100.94h-315.23Z"/><path class="cls-7" d="M427.31,524.75c6.64-14.79,13.7-21.06,13.7-21.06"/><path class="cls-7" d="M230.96,602.46l85.42-.63s1.61-12.3-8.3-16.5c-8.87-3.76-26.8-6.73-31.08-23.54"/><path class="cls-7" d="M380.37,501.77l49.71,24.64v.18c-5.63,14.46,6.57,29.17,12.43,37.96,6,9-2.14,18.43-2.14,18.43l-78.54-46.24,18.61-35.6.84-1.61"/><path class="cls-13" d="M231.87,463.48l-12.92,70.74,6.98,28.96,83.57-.6,16.49-138.73,71.45-.03-27.71,76.87,96.99,6.32,15.68-67.37s9.23-34.08-7.79-52.46c-17.01-18.37-28.37-27.69-28.37-27.69l-.78,64.07h-119.48l-14.67.53-6.19,12.13-15.4,9.08-5.69.81-15.58-4.83-7.75-2.94-14.37,9.75-6.19,8.96-8.27,6.43Z"/><path class="cls-7" d="M596.5,674.6l-1.62,36.85h-85.85s-.06-3.22,2.97-7.74c2.41-3.6,6.79-8.02,14.72-12.3,17.89-9.63,22.41-17.3,22.41-17.3"/><path class="cls-7" d="M595.12,698l-63.8-9.02,63.8,9.02Z"/><path class="cls-7" d="M549.13,674.11s-4.52,7.67-22.41,17.3c-7.93,4.27-12.31,8.7-14.72,12.3-3.03,4.52-2.97,7.74-2.97,7.74h85.85l1.62-36.85-47.37-.49Z"/><line class="cls-7" x1="208.48" y1="284.15" x2="234.2" y2="254.01"/><line class="cls-7" x1="226.26" y1="316.55" x2="262.04" y2="279.81"/><polygon class="cls-17" points="446.35 321.81 230.13 321.81 230.13 322.79 213.89 322.79 200.49 360.53 212.56 376.24 220.94 410.81 229.79 408.94 236.31 411.97 243.97 423.73 301.36 424.9 446.35 424.75 447.35 423.75 447.35 322.81 446.35 321.81"/><path class="cls-7" d="M740.82,608.62l27.58,17.6-44.79,73.24s-8.98-5.26-7.86-25.55c1.12-20.28-3.07-28.14-3.07-28.14"/><path class="cls-6" d="M634.8,578.89c-1.05,14.39,14.87,29.71,14.87,29.71l54.61,47.19,39.1-50.56-45.25-41.78-.79-79.56s2.28-23.74-9.16-46.59c-10.02-20.01-10.79-31.04-10.79-31.04"/><path class="cls-11" d="M678.85,414.01c1.39,5.26,4.1,13.27,9.35,23.74,11.44,22.85,9.16,46.59,9.16,46.59l.79,79.56,45.25,41.78-39.1,50.56-54.61-47.19s-15.91-15.32-14.87-29.71l19.25-80.52-42.34,176.69h-76.73l29.63-162.57,10.39-60.98c1.91-11.21,2.79-22.56,2.63-33.93h0s30.94,1,58.52-.59c22.19-1.28,42.13-5.55,42.7-3.42Z"/><path class="cls-7" d="M350.94,156.32l5.26,10.04c.39.75.54,1.6.42,2.44h0c-.27,1.96-1.91,3.43-3.89,3.49l-3.54.11"/><path class="cls-7" d="M326.06,156.54s-5.76-6.74-11.52-3.37c-2.4,1.4-2.99,3.9-2.86,6.34.19,3.52,1.86,6.79,4.42,9.2l6.91,6.52"/><line class="cls-7" x1="324.54" y1="163.93" x2="319" y2="159.04"/><path class="cls-7" d="M322.08,153.48s16.52-3.8,20.65-20.98c0,0,5.53.55,10.97,7.55"/><circle class="cls-10" cx="388.36" cy="522.55" r="9.62"/><circle class="cls-2" cx="388.36" cy="522.55" r="9.62"/><path class="cls-7" d="M305.67,187.93c9.64,1.09,13.85-8.63,13.69-16.15"/><path class="cls-7" d="M291.81,146.44s-8.67,4.59-12.79-1.95c-3.21-5.09,1.61-9.77,1.61-9.77,0,0-11-.27-9.86-9.5.94-7.62,9.52-6.16,9.52-6.16,0,0-6.51-7.62-1.18-13.57,5.33-5.95,12.39-.9,12.39-.9,0,0-1.11-9.62,7.27-9.97,8.38-.35,8.72,7.62,8.72,7.62,0,0,4.78-6.3,10.8-2.42,6.02,3.88,1.73,11.01,1.73,11.01,0,0,7.34-3.19,10.32,3.12,2.98,6.3-3.46,10.59-3.46,10.59"/><path d="M345.36,133.25c1.09.02,3.08,1.4,4.06,1.86-1.13-1.5-2.16-4.13-3.32-4.89-6.37-4.16-13.84-5.44-13.84-5.44,0,0-2.94-.56-4.29-.76.77-1.71,3.47-7.01,2.31-9.47-2.98-6.3-10.32-3.12-10.32-3.12,0,0,4.29-7.13-1.73-11.01s-10.8,2.42-10.8,2.42c0,0-.35-7.96-8.72-7.62-8.38.35-7.27,9.97-7.27,9.97,0,0-7.06-5.05-12.39.9-5.33,5.95,1.18,13.57,1.18,13.57,0,0-8.59-1.45-9.52,6.16-1.14,9.23,9.86,9.5,9.86,9.5,0,0-4.82,4.68-1.61,9.77,2.49,3.96,9.59,2.42,12.48,1.71-.37,2.96-2.01,9.36-1.53,12.21,1.26,7.35,5.65,11.67,8.68,15.96,1.95,2.76,4.38,8.37,5.2,9.96,1.85,3.6,3.68,2.91,3.68,2.91l7.74-3c1.68-2.2,3.49-9.21,4.51-11.71-.34-.48-.63-1.03-.82-1.7-.57-2.04-3.75-3.75-5.01-5.51-1.75-2.45-2.74-5.51-1.93-8.53,1.44-5.37,6.1-5.87,10.41-4.56,2.89-1.86,6.85-2.03,9.64-4.35,3.1-2.56,5.16-6.2,7.65-9.34,2.22-3.2,1.7-6.02,5.7-5.93Z"/><path class="cls-7" d="M441.95,141.86l.27-24.75c.01-2.22,1.81-4.01,4.03-4.01h0c1.97,0,3.65,1.43,3.98,3.37l.53,15.29"/><path class="cls-7" d="M433.87,144.69l-2.87-11.56c-.56-2.55,1.22-5.03,3.81-5.32h0"/><polygon class="cls-12" points="202.13 143.84 166.04 129.39 171.57 90.91 170.03 90.02 139.47 114.05 108.91 90.02 107.37 90.91 112.9 129.39 76.81 143.84 76.81 145.62 112.9 160.07 107.37 198.55 108.91 199.44 139.47 175.41 170.03 199.44 171.57 198.55 166.04 160.07 202.13 145.62 202.13 143.84"/><line class="cls-4" x1="505.29" y1="165.54" x2="482.7" y2="165.54"/><polyline class="cls-4" points="457.44 114.33 457.44 64.6 772.66 64.6 772.66 165.54 513.25 165.54"/><circle class="cls-7" cx="503.34" cy="110.44" r="15.81"/><line class="cls-7" x1="533.49" y1="101.19" x2="737.92" y2="101.19"/><line class="cls-7" x1="533.49" y1="131.19" x2="677.92" y2="131.19"/><circle class="cls-7" cx="231.28" cy="371.57" r="15.81"/><circle cx="503.34" cy="110.44" r="15.81"/><circle cx="231.22" cy="371.68" r="15.81"/><path class="cls-2" d="M226.01,569.19c1.81-1.54,4.15-2.47,6.71-2.47,5.71,0,10.34,4.63,10.34,10.34s-4.63,10.34-10.34,10.34c-1.43,0-2.79-.29-4.03-.81"/><line class="cls-7" x1="260.18" y1="359.4" x2="420.61" y2="359.4"/><line class="cls-7" x1="260.18" y1="389.4" x2="360.61" y2="389.4"/><path class="cls-7" d="M202.63,276.82c-.07-.03-.15-.07-.22-.11-3.86-1.87-8.08-2.88-12.37-2.97-9.99-.21-27.52,1.48-36.94,14.56-9.57,13.27-5.39,27.41,1.26,35.84,1.7,2.15,13.32,15.41,10.02,19.47,0,0,3.2,1.49,7.26,1.34"/><path class="cls-5" d="M202.18,276.41c3.48,2.3,7.84,6.98,9.05,16.31,0,0,.47,6.98,4.31,11.5,2.1,2.47,15.47,12.56,14.17,22.58-1.44,11.09-13.76,15.6-13.76,15.6,0,0-16.04,4.68-13.99,19.46"/><path class="cls-5" d="M211.92,296.78l15.13,7.84c.7.43,1.21,1.12,1.41,1.92h0c.23.91.04,1.88-.53,2.63l-4.03,2.73"/><path class="cls-5" d="M246.02,448.13l14.89-10.14,16.91,6.69s9.94,3.62,12.33.21"/><path class="cls-5" d="M195.3,326.08s-9.12,2.66-13.42-2.91c-4.31-5.57-6.74-12.63-.13-16.59,6.29-3.76,9.58,2.69,9.58,2.69l1.69,3.13,8.29-.74-8.73-12.01s7.42-6.29,9.56-12.58c2.28-6.71.38-10.51.38-10.51"/><path class="cls-5" d="M240.4,416.7l19.8-6.44c2.41-.78,4.72-1.83,6.93-3.05,3.48-1.92,9.98-4.61,16.75-2.75,6.68,1.83,13.57,4.99,17.4,6.88,1.76.87,2.6,2.89,2,4.75h0c-.57,1.75-2.28,2.87-4.11,2.69l-9.34-.89,11.13,7.45"/><path class="cls-3" d="M240.4,416.7l19.8-6.44c2.41-.78,4.72-1.83,6.93-3.05,3.48-1.92,9.98-4.61,16.75-2.75,6.68,1.83,13.57,4.99,17.4,6.88,1.76.87,2.6,2.89,2,4.75h0c-.57,1.75-2.28,2.87-4.11,2.69l-9.34-.89,11.67,6.62,10.88.39c-.58,3.82-2.28,6.53-3.41,8.47-1.44,2.46-4.96,3.8-7.81,3.91-2.02.08-4.66-.33-7.89-1.85l8.68,1.75s-3.74,5.52-10.5,3.85l4.3.31s-4.01,4.56-8.96,3.67l8.58-2.92c-1.64,2.22-4.06,4.02-5.93,4.72-6,2.26-11.64-2.13-11.64-2.13l-16.91-6.69-14.89,10.14.67-12.32-6.29-19.1Z"/><path class="cls-7" d="M200.95,423.55l12.19-3.32s14.06,18,11.43,40.88"/><path class="cls-7" d="M217.56,464.57s6.02,3.38,15.29-2.01c3.27-1.9,6-4.28,8.15-6.57,4.37-4.63,6.94-10.45,5.88-16.72-.98-5.79-2.83-16.99-9.72-26.27-2.34-3.15-6.78-5.13-10.5-3.88-2.09.7-5.8,2.16-8.23,3.41-8.75,4.48-7.65,8.42-7.65,8.42"/><path class="cls-7" d="M301.96,437.19s-3.74,5.52-10.5,3.85"/><path class="cls-7" d="M293.28,435.44c3.23,1.52,5.86,1.93,7.89,1.85,2.85-.11,5.41-1.75,6.85-4.21"/><path class="cls-7" d="M202.06,362.13c4.08,3.74,7.59,8.53,9.78,13.68.19.45.38.92.57,1.39,5.15,13.3,8.44,33.47,8.44,33.47"/><path class="cls-8" d="M152.11,573.4c-11.57,35.63-51.82,98.55-51.82,98.55l-53.67-37.48s1.39-5.09,17.12-36.09c15.73-31,26.57-65.75,27.24-77.02.88-14.93-1.5-23.83-2.8-49.09l-.06-2.99"/><path class="cls-8" d="M134.07,524.35s24.99,54.6,28.22,95.31c3.24,40.72,3.7,52.75,3.7,52.75l64.31-1.85s8.58-77.32-15.27-148.99l-20.3-55.88"/><line class="cls-7" x1="366.38" y1="528.69" x2="443.64" y2="573.62"/><line class="cls-7" x1="230.6" y1="594.6" x2="315.16" y2="592.99"/><path class="cls-7" d="M185.92,459.99c-5.66-1.02-11.78,3.66-15.44,7.13-4.68,4.44-9.67,8.55-15.06,12.11-9.76,6.45-20.57,14.64-35.86,14.16-20.53-.64-31.43-23.61-31.43-23.61,1.2-31.8,27.29-92.2,27.29-92.2"/><line class="cls-7" x1="618.11" y1="293.78" x2="637.14" y2="341.97"/><path class="cls-7" d="M629.82,344.13s7.75,23.55.3,51.86c-7.45,28.32-6.56,40.54,10.73,47.69,17.29,7.15,39.94-12.52,36.07-42.33-3.87-29.81-33.98-63.79-33.98-63.79"/><path d="M629.82,344.13s7.75,23.55.3,51.86c-7.45,28.32-6.56,40.54,10.73,47.69,17.29,7.15,39.94-12.52,36.07-42.33-3.87-29.81-33.98-63.79-33.98-63.79"/><path class="cls-6" d="M577.63,417.58h0c.16,11.37-.72,22.73-2.63,33.93l-10.39,60.98-29.63,162.57h76.73l21.88-91.3"/><path class="cls-9" d="M660.93,269.45l26.55-67.44s-1.63-5.7-2.22-10.39c-.76-6.04,5.33-17.48,6.05-19.66.96-2.87,2.06-4.34,4.31-4.31.04,0,4.51.02,4.33,4.97-.07,1.87-1.04,12.34-1.04,12.34l26.73-18.04c.28-.19.59-.35.9-.48l.46-.19c1.45-.6,3.13-.56,4.45.29,2.77,1.79,2.39,5.5-.08,7.4l-18.52,16.01"/><path class="cls-9" d="M695.82,281.9l17.79-59s1.77-6.45,5.88-9.88l20.88-19.02s.05-.04.07-.07c.91-.91,1.32-2.01,1.33-3.1.02-1.85-1.19-3.41-2.83-4.03"/><path class="cls-9" d="M543.98,290.92l-23.74-64.79c-1.57-4.28-3.7-8.34-6.47-11.96-1.66-2.17-3.65-4.34-5.84-5.92-4.32-3.1-10.33-7.65-13.65-10.17-.11-.09-.21-.19-.32-.28-1.69-1.29-3.26-6.13,1.26-7.31.73-.19,1.81.07,2.76.58"/><path class="cls-9" d="M495.96,189.55l-3.15-2.28c-1.52-1.24-1.61-3.72-.36-5.24h0c1.17-1.43,3.25-1.73,4.78-.67l15.75,11.06"/><line class="cls-7" x1="511.94" y1="201.31" x2="495.47" y2="189.23"/><path class="cls-9" d="M505.87,170.43c-1.29-1.34-1.59-3.26-.95-4.86,0,0,2.11-4.24,5.94-1.61l1.05.87c.63.52,1.24,1.08,1.82,1.66l20.8,20.8s-.24-8.65-.24-13.96c0-3.85,2.65-5.62,4.4-5.78,3.88-.37,3.51,3.23,7.92,18.1,3.55,11.97-1.24,20.83-1.24,20.83l31.18,70.59"/><line class="cls-7" x1="633.8" y1="584.72" x2="654.05" y2="498.37"/><path class="cls-7" d="M625.46,417.8l-47.83-.23s-.64-30.2-5.5-43.74c-4.19-11.69-8.55-20.8-18.04-40.92-9.49-20.12-18.22-37.59-18.22-37.59l46.32-20.12,9.11,16.59"/><path class="cls-7" d="M759.48,621.19l-43.86,50.31,43.86-50.31Z"/><path class="cls-7" d="M413.42,223.51l10.33-.77,26.81-53.34-13.75-17.54s-3.47-3.78-2.93-9.99c.34-3.9,1-12.16,1.44-17.77.24-3.08,3.07-5.29,6.12-4.78h0"/><path class="cls-2" d="M414,219.26c.29-3.73-1.49-6.32-3.51-8.03-2.15-1.82-4.89-2.81-7.7-2.99l-60.45-3.89.81,2.32c.53.22,1.03.6,1.42,1.2,3.55,5.48,6.52,11.3,9.95,16.85,2.82,4.57,5.73,9.03,7.54,14.12,2.72,7.65,3.94,18.29,1.72,26.74l.08.23,29.75,6.42s10.57,1.96,12.81-6.28c1.77-6.53-2.42-10.39-5.32-12.32,0,0,10.36-1.47,11.48-10.89.94-7.93-8.38-12.85-8.38-12.85,0,0,9.18-2.47,9.82-10.62Z"/><path class="cls-7" d="M326.85,190.94c7.74,5.9,20.66,6.39,28.57,3.36s11.51-9.75,10.53-17.04c-1.1-8.11-10.37-40.62-19.01-46.27-6.37-4.16-12.49-5.62-12.49-5.62,0,0-15.76-4.1-30.98,6.36-11.43,7.85-14.56,19.33-12.84,29.39,1.26,7.35,6.87,13.69,9.9,17.97,1.95,2.76,5.57,8.21,5.2,9.96-.93,4.37-2.86,11.31-2.86,11.31"/><path class="cls-10" d="M363.85,265.8l29.75,6.42s10.57,1.96,12.81-6.28c1.77-6.53-2.42-10.39-5.32-12.32,0,0,10.36-1.47,11.48-10.89.94-7.93-8.38-12.85-8.38-12.85,0,0,9.18-2.47,9.82-10.62.29-3.73-1.49-6.32-3.51-8.03-2.15-1.82-4.89-2.81-7.7-2.99l-60.45-3.89"/><line class="cls-7" x1="318.43" y1="234.95" x2="355.7" y2="225.13"/><path class="cls-7" d="M448.74,140.62l5.19-23.36c.55-2.26,2.89-3.59,5.11-2.9h0c1.91.59,3.1,2.5,2.79,4.47l-3.38,21.67,11.21,11.75-4.3-9.39c-.83-1.81-.27-3.95,1.33-5.13h0c1.96-1.44,4.72-.92,6.02,1.13l6.94,10.92s4.51,6.29,3.14,13.34c-.96,4.94-1.23,5.66-1.23,5.66,0,0-20.65,57.83-28.4,76.41-7.74,18.59-25.56,18.33-25.56,18.33l-20.14-.77"/><path class="cls-7" d="M276.97,285.14s-5.51,9.37-10.56,18.78l-.02.05,86.83-2.7,10.64-35.46,1.24-6.87s1.93-14.01-5.32-27.06c-5.23-9.42-12.66-20.63-16.38-26.14-1.53-2.27-2.51-4.86-2.87-7.57l-.14-2.62"/><path class="cls-2" d="M280.34,283.69s17.56-16.72,31.91-37.32c14.35-20.6,3.55-36.64-3.21-42.89-6.66-6.16-20.77-7.77-34.11-1.18-13.34,6.59-39.17,31.91-39.17,31.91,0,0-11.42,10.63-2.41,19.49,5.71,5.61,13.79,2.92,13.79,2.92,0,0-4.42,10.77,2.79,15.67,7.21,4.9,14.42.1,14.42.1,0,0-5.75,7.69,1.92,13.56,6.54,5,14.06-2.27,14.06-2.27Z"/><path class="cls-10" d="M280.34,283.69s17.56-16.72,31.91-37.32c14.35-20.6,3.55-36.64-3.21-42.89-6.66-6.16-20.77-7.77-34.11-1.18-13.34,6.59-39.17,31.91-39.17,31.91,0,0-11.42,10.63-2.41,19.49,5.71,5.61,13.79,2.92,13.79,2.92,0,0-4.42,10.77,2.79,15.67,7.21,4.9,14.42.1,14.42.1,0,0-5.75,7.69,1.92,13.56,6.54,5,14.06-2.27,14.06-2.27Z"/><path class="cls-14" d="M393.43,650.48l7.87,33.49c.2,1.59,1.45,2.84,3.04,3.04l33.49,7.87c4.09.52,4.09,6.45,0,6.97l-33.49,8.93c-1.59.2-2.84,1.45-3.04,3.04l-7.87,32.43c-.52,4.09-6.45,4.09-6.97,0l-7.87-33.49c-.2-1.59-1.45-2.84-3.04-3.04l-33.49-7.87c-4.09-.52-4.09-6.45,0-6.97l33.49-7.87c1.59-.2,2.84-1.45,3.04-3.04l7.87-33.49c.52-4.09,6.45-4.09,6.97,0Z"/><circle cx="429.75" cy="735.44" r="7.32"/><path class="cls-9" d="M511.49,189.21l-12.48-13.68c-2.04-2.27-2.31-4.8-.19-6.47h0c1.16-.92,3.35-1.01,5.44.44"/><line class="cls-7" x1="516.68" y1="194.9" x2="499.24" y2="177.46"/><line class="cls-7" x1="503.82" y1="168.19" x2="522.6" y2="188.15"/><path class="cls-1" d="M733.19,171.43l-1.87,7.89,9.33-3.32s.08.03.12.04c.35-.65.54-1.33.54-2.02.03-3.63-4.62-6.15-8.13-2.59Z"/><path class="cls-1" d="M731.37,173.91c2.47-1.9,2.85-5.61.08-7.4-1.31-.85-3-.88-4.45-.29l-.46.19c-.32.13-.62.29-.9.48l-26.73,18.04s.97-10.47,1.04-12.34c.18-4.94-4.29-4.97-4.33-4.97-2.26-.03-3.35,1.44-4.31,4.31-.73,2.18-6.81,13.61-6.05,19.66.59,4.7,2.22,10.39,2.22,10.39l-26.55,67.44,34.89,12.45,17.79-59s1.77-6.45,5.88-9.88l20.88-19.02s.05-.04.07-.07c.91-.91,1.32-2.01,1.33-3.1.02-1.85-1.19-3.41-2.83-4.03l-.14.02,3.82-3.48s.05-.04.07-.07c.91-.91,1.32-2.01,1.33-3.1.02-2-1.39-3.65-3.24-4.15"/><line class="cls-7" x1="734.47" y1="170.7" x2="711.14" y2="189.12"/><line class="cls-7" x1="740.78" y1="176.12" x2="716.25" y2="194.67"/><path class="cls-7" d="M739.46,185.83s-.04.04-.07.07l-18.14,13.67"/><path class="cls-7" d="M675.23,392.87s-.1-27.47,8.59-58.65c8.69-31.18,14.06-50.86,14.06-50.86l-36.94-13.91-6.51-2.45-5.37,16.1"/><path class="cls-9" d="M589.64,320.65c-1.44-3.92-2.23-8.16-2.23-12.58,0-19.9,15.93-36.03,35.57-36.03,7.36,0,14.07,2.51,19.75,6.39,5.68,3.89,10.22,9.46,12.92,15.93"/><path class="cls-9" d="M604.12,277.65l.88-8.85c.09-.95.71-1.77,1.6-2.13h0c.92-.37,1.97-.17,2.69.5l6.28,5.79"/><path class="cls-7" d="M646.4,281.15c7.43,6.6,12.12,16.29,12.12,27.09,0,19.9-15.93,36.03-35.57,36.03s-35.57-16.13-35.57-36.03c0-3.43.47-6.74,1.35-9.88"/><path d="M658.52,308.24c0,19.9-15.93,36.03-35.57,36.03s-35.57-16.13-35.57-36.03c0-3.94.03-4.46,1.18-8.01,1.32-4.05,9.46-10.89,16.31-10.44,4.9.32,11.95,4.05,13.33,3.22,1.01-.61,3.89-7.36,7.12-10.13,5.72-4.9,16.66-4.41,18.37-3.32,9.61,6.17,14.83,15.43,14.83,28.68Z"/><path class="cls-7" d="M588.62,298.68c2.54-3.96,12.51-15.79,29.68-4.77,0,0,3.13-19.04,24.24-14.57,1.24.26,3.98,1.51,5.61,3.27"/><line class="cls-5" x1="201.96" y1="361.86" x2="163.7" y2="343.28"/><path class="cls-5" d="M165.16,343.94c4.78,1.5,15.01-1.05,19.05-4.03,8.25-6.06,4.24-13.1,4.24-13.1"/><path class="cls-3" d="M215.54,304.21c-1.91-2.24-2.98-5.08-3.58-7.38l3.38,7,8.56,8.07,4.03-2.73c.56-.75.75-1.72.53-2.63-.2-.8-.71-1.49-1.41-1.92l-15.09-7.82c-.6-2.33-.72-4.09-.72-4.09-1.15-8.84-5.12-13.5-8.49-15.92.12.46.18.97.16,1.52,0,.04,0,.08,0,.12,0,.05,0,.1,0,.16-.01,5.95-2.37,14.19-9.61,20.79-1.06.96,1.05,3.62,1.17,3.75.84.92,1.87,3.03,3.14,3.42,3.78,1.16,2.16,7.09-1.63,5.93-2.24-.69-3.8-2.21-5.29-3.96-1.11-1.3-2.46-2.31-3.6-3.55-1.04.05-2.08.14-3.13.17-.23,0-.44-.01-.64-.05-.04.02-.08.04-.13.05-.3.09-.38.11-.4.1-.05.03-.13.08-.28.17-.41.23-.82.46-1.22.72-.69.45-1.04.73-1.76,1.41-.24.22-.45.42-.64.62-.04.16-.1.32-.15.48-.02,1.13-.35,2.25-1,3.16.25,2.37.82,4.61,1.35,6.97.03.07.06.15.09.22,1.15,2.35,3.01,4.32,4.61,6.4.43.1.85.24,1.28.42,3.67.79,4.68,5.15,3.05,7.93-.08,1.76-.92,3.47-2.53,4.34-.02.03-.05.05-.07.07-.58,1.62-1.92,2.93-3.99,3.17-.82.75-1.95,1.24-3.39,1.24-.08,0-7.13.99-8.47,2.17s1.04,2.39.56,1.87l5.04,1.9,26.72,13.36c-2.05-14.78,13.99-19.46,13.99-19.46,0,0,12.32-4.52,13.76-15.6,1.3-10.03-12.06-20.11-14.17-22.58Z"/><line class="cls-7" x1="191.24" y1="317.21" x2="184.15" y2="311.39"/><path class="cls-7" d="M132.79,519.82s13.36,29.2,21.81,60.81"/><path class="cls-7" d="M225.05,460.39c-21.05,11.91-33.93,7.6-44.6-7.2-13.57-18.84-20.78-50.69-20.78-50.69"/><path class="cls-11" d="M92.01,558.72c-1.64-4.17-5.39-8-8.89-10.25-2.39,7.34-5.3,14.64-8.54,23.44l5.85,13.34c10.52-4.13,15.71-16,11.58-26.53Z"/><path class="cls-11" d="M112.04,611.62c.91,11.27-7.49,21.14-18.76,22.04-11.27.91-21.14-7.49-22.04-18.76l40.8-3.28Z"/><path class="cls-11" d="M140.21,560.04c5.4,9.93,1.74,22.36-8.19,27.76-9.93,5.4-22.36,1.74-27.76-8.19l35.95-19.57Z"/><path class="cls-11" d="M190.99,540.63c-4.34,10.44-16.32,15.37-26.76,11.03-10.44-4.34-15.37-16.32-11.03-26.76l37.79,15.73Z"/><path class="cls-11" d="M205.66,492.81l-28.55,22.22c6.92,8.94,19.78,10.57,28.71,3.65,2.85-2.21,4.95-5.02,6.27-8.12-2.17-6.07-3.6-10.88-6.44-17.76Z"/><path class="cls-11" d="M88.09,487.09c.02.5,1.14,11.35,1.68,18.12,5.38-1.82,10.62-6.31,12.97-11.96l-14.66-6.16Z"/><path class="cls-11" d="M232.44,617.86l-17.65-7.29c-4.34,10.44.6,22.42,11.03,26.76,2.3.96,4.63,1.46,6.97,1.55.11-7.35-.37-20.9-.35-21.02Z"/><path class="cls-11" d="M183.25,585.07l-25.13,13.73c0,.08,2.17,10.98,2.68,16.03,4.66,1.03,9.74.47,14.26-1.99,9.93-5.4,13.59-17.83,8.19-27.76Z"/><path class="cls-11" d="M188.44,632.9l-25.12,13.32c.39,5.57.73,10.99,1.13,16.4,4.86,1.27,11.04.64,15.8-1.95,9.93-5.4,13.59-17.83,8.19-27.76Z"/><path class="cls-11" d="M223.25,547.17l-29.15,15.81c5.4,9.93,17.83,13.59,27.76,8.19,1.84-1,3.99-2.59,5.38-4.01-.73-5.18-3.51-18.09-3.99-19.99Z"/><path class="cls-11" d="M110.09,502.14c11.18,1.7,18.86,12.13,17.17,23.3-1.7,11.18-12.13,18.86-23.3,17.17l6.14-40.47Z"/><path class="cls-11" d="M168.3,471.86c-.69-.46-.19-.19-.92-.56-5.69,5.06-10.94,8.36-17.7,13.02l24.29,15.93c6.27-9.4,3.73-22.11-5.67-28.38Z"/></svg>