<svg width="48" height="48" viewBox="0 0 48 48" fill="none" xmlns="http://www.w3.org/2000/svg">
<circle cx="24" cy="24" r="24" fill="#FFE68B"/>
<path d="M30.3529 32.7647C31.1018 32.7647 31.82 33.0622 32.3495 33.5917C32.879 34.1212 33.1765 34.8394 33.1765 35.5882C33.1765 34.8394 33.4739 34.1212 34.0035 33.5917C34.533 33.0622 35.2512 32.7647 36 32.7647C35.2512 32.7647 34.533 32.4672 34.0035 31.9377C33.4739 31.4082 33.1765 30.69 33.1765 29.9412C33.1765 30.69 32.879 31.4082 32.3495 31.9377C31.82 32.4672 31.1018 32.7647 30.3529 32.7647ZM30.3529 15.8235C31.1018 15.8235 31.82 16.121 32.3495 16.6505C32.879 17.18 33.1765 17.8982 33.1765 18.6471C33.1765 17.8982 33.4739 17.18 34.0035 16.6505C34.533 16.121 35.2512 15.8235 36 15.8235C35.2512 15.8235 34.533 15.5261 34.0035 14.9965C33.4739 14.467 33.1765 13.7488 33.1765 13C33.1765 13.7488 32.879 14.467 32.3495 14.9965C31.82 15.5261 31.1018 15.8235 30.3529 15.8235ZM20.4706 32.7647C20.4706 30.5182 21.363 28.3636 22.9516 26.7751C24.5401 25.1866 26.6946 24.2941 28.9412 24.2941C26.6946 24.2941 24.5401 23.4017 22.9516 21.8131C21.363 20.2246 20.4706 18.0701 20.4706 15.8235C20.4706 18.0701 19.5782 20.2246 17.9896 21.8131C16.4011 23.4017 14.2465 24.2941 12 24.2941C14.2465 24.2941 16.4011 25.1866 17.9896 26.7751C19.5782 28.3636 20.4706 30.5182 20.4706 32.7647Z" stroke="#CA7E04" stroke-width="1.7" stroke-linecap="round" stroke-linejoin="round"/>
</svg>
