<svg width="304" height="304" viewBox="0 0 304 304" fill="none" xmlns="http://www.w3.org/2000/svg">
<circle cx="152" cy="152" r="152" fill="#FBE797"/>
<path d="M128.747 178.303C129.55 176.246 128.533 173.926 126.475 173.123C124.417 172.32 122.098 173.337 121.294 175.395L128.747 178.303ZM107.054 222.887L103.327 221.433C102.748 222.918 103.105 224.606 104.238 225.728C105.37 226.851 107.061 227.193 108.541 226.601L107.054 222.887ZM133.476 212.304L136.743 209.996C135.675 208.484 133.708 207.902 131.989 208.591L133.476 212.304ZM148.801 234L145.534 236.308C146.401 237.535 147.882 238.173 149.37 237.959C150.857 237.746 152.099 236.717 152.586 235.295L148.801 234ZM191.684 163.892C190.957 161.806 188.677 160.703 186.591 161.43C184.504 162.156 183.402 164.436 184.128 166.523L191.684 163.892ZM207.987 222.887L206.39 226.555C207.847 227.189 209.541 226.901 210.706 225.821C211.872 224.74 212.287 223.073 211.765 221.572L207.987 222.887ZM183.678 212.304L185.275 208.636C183.613 207.913 181.672 208.397 180.545 209.817L183.678 212.304ZM167.297 232.942L163.483 234.15C163.93 235.56 165.118 236.608 166.572 236.876C168.027 237.143 169.51 236.587 170.429 235.429L167.297 232.942ZM158.577 205.425L154.793 204.13V204.13L158.577 205.425ZM172.138 178.144C172.853 176.054 171.738 173.78 169.648 173.065C167.558 172.349 165.284 173.464 164.569 175.554L172.138 178.144ZM136.142 125.183C134.495 123.711 131.966 123.852 130.494 125.499C129.022 127.146 129.163 129.675 130.81 131.147L136.142 125.183ZM148.272 141.395L145.606 144.377C146.433 145.116 147.529 145.478 148.634 145.378C149.738 145.278 150.751 144.724 151.431 143.848L148.272 141.395ZM173.626 115.273C174.981 113.528 174.666 111.015 172.921 109.66C171.176 108.305 168.663 108.621 167.308 110.366L173.626 115.273ZM135.311 77.1641L135.92 73.2108L135.311 77.1641ZM142.714 75.1777L145.22 78.2952V78.2952L142.714 75.1777ZM120.14 82.3779L123.869 83.8254V83.8254L120.14 82.3779ZM130.454 76.4149L129.844 80.3681L130.454 76.4149ZM112.941 92.3908L114.392 96.1184L112.941 92.3908ZM118.36 86.9639L114.631 85.5164L118.36 86.9639ZM102.406 104.502L98.4526 105.11L102.406 104.502ZM108.361 94.1735L106.91 90.4459L108.361 94.1735ZM101.171 116.778L98.0497 114.276H98.0497L101.171 116.778ZM103.154 109.365L107.108 108.756V108.756L103.154 109.365ZM98.0946 132.541L94.9737 135.043H94.9737L98.0946 132.541ZM98.0946 120.615L101.215 123.117L98.0946 120.615ZM103.154 143.791L107.108 144.399L103.154 143.791ZM101.171 136.378L104.291 133.875L101.171 136.378ZM108.361 158.982L106.91 162.71H106.91L108.361 158.982ZM102.406 148.654L98.4526 148.045H98.4526L102.406 148.654ZM118.36 166.192L114.631 167.639L118.36 166.192ZM112.941 160.765L114.392 157.037H114.392L112.941 160.765ZM130.454 176.741L131.064 180.694L130.454 176.741ZM120.14 170.778L123.869 169.33L120.14 170.778ZM142.714 177.978L140.207 181.095L142.714 177.978ZM135.311 175.991L134.701 172.038H134.701L135.311 175.991ZM158.455 181.058L160.961 184.175L158.455 181.058ZM146.545 181.058L149.051 177.94L146.545 181.058ZM169.689 175.991L170.299 172.038H170.299L169.689 175.991ZM162.286 177.978L159.78 174.86L162.286 177.978ZM184.86 170.778L181.131 169.33L184.86 170.778ZM174.546 176.741L173.936 180.694L174.546 176.741ZM192.059 160.765L190.608 157.037H190.608L192.059 160.765ZM186.64 166.192L190.369 167.639L186.64 166.192ZM202.594 148.654L198.64 149.262V149.262L202.594 148.654ZM196.639 158.982L198.09 162.71H198.09L196.639 158.982ZM203.829 136.378L200.709 133.875L203.829 136.378ZM201.846 143.791L205.799 143.183L201.846 143.791ZM206.905 120.615L203.785 123.117L206.905 120.615ZM206.905 132.541L210.026 135.043L206.905 132.541ZM201.846 109.365L205.799 109.973V109.973L201.846 109.365ZM203.829 116.778L206.95 114.276L203.829 116.778ZM196.639 94.1735L198.09 90.4459L196.639 94.1735ZM202.594 104.502L198.64 103.893V103.894L202.594 104.502ZM186.64 86.9639L190.369 85.5164V85.5164L186.64 86.9639ZM192.059 92.3908L190.608 96.1184L192.059 92.3908ZM174.546 76.4149L175.156 80.3681L174.546 76.4149ZM184.86 82.3779L181.131 83.8254V83.8254L184.86 82.3779ZM162.286 75.1777L164.793 72.0602V72.0602L162.286 75.1777ZM169.689 77.1641L169.08 73.2108L169.689 77.1641ZM158.455 72.0975L155.949 75.215V75.215L158.455 72.0975ZM146.545 72.0975L144.039 68.9799L144.039 68.9799L146.545 72.0975ZM121.294 175.395L103.327 221.433L110.78 224.342L128.747 178.303L121.294 175.395ZM108.541 226.601L134.963 216.017L131.989 208.591L105.566 219.174L108.541 226.601ZM130.209 214.612L145.534 236.308L152.068 231.692L136.743 209.996L130.209 214.612ZM184.128 166.523L204.209 224.202L211.765 221.572L191.684 163.892L184.128 166.523ZM209.584 219.22L185.275 208.636L182.082 215.971L206.39 226.555L209.584 219.22ZM180.545 209.817L164.164 230.455L170.429 235.429L186.811 214.791L180.545 209.817ZM152.586 235.295L162.362 206.719L154.793 204.13L145.016 232.705L152.586 235.295ZM162.362 206.719L172.138 178.144L164.569 175.554L154.793 204.13L162.362 206.719ZM171.11 231.733L162.39 204.216L154.764 206.633L163.483 234.15L171.11 231.733ZM130.81 131.147L145.606 144.377L150.939 138.413L136.142 125.183L130.81 131.147ZM151.431 143.848L173.626 115.273L167.308 110.366L145.113 138.941L151.431 143.848ZM155.949 75.215L159.78 78.2952L164.793 72.0602L160.961 68.9799L155.949 75.215ZM170.299 81.1173L175.156 80.3681L173.936 72.4617L169.08 73.2108L170.299 81.1173ZM181.131 83.8254L182.911 88.4114L190.369 85.5164L188.589 80.9304L181.131 83.8254ZM190.608 96.1184L195.188 97.901L198.09 90.4459L193.51 88.6632L190.608 96.1184ZM198.64 103.894L197.892 108.756L205.799 109.973L206.547 105.11L198.64 103.894ZM200.709 119.28L203.785 123.117L210.026 118.113L206.95 114.276L200.709 119.28ZM203.785 130.039L200.709 133.875L206.95 138.88L210.026 135.043L203.785 130.039ZM197.892 144.399L198.64 149.262L206.547 148.046L205.799 143.183L197.892 144.399ZM195.188 155.254L190.608 157.037L193.51 164.492L198.09 162.71L195.188 155.254ZM182.911 164.744L181.131 169.33L188.589 172.225L190.369 167.639L182.911 164.744ZM175.156 172.787L170.299 172.038L169.08 179.945L173.936 180.694L175.156 172.787ZM159.78 174.86L155.949 177.94L160.961 184.175L164.793 181.095L159.78 174.86ZM149.051 177.94L145.22 174.86L140.207 181.095L144.039 184.175L149.051 177.94ZM134.701 172.038L129.844 172.787L131.064 180.694L135.92 179.945L134.701 172.038ZM123.869 169.33L122.089 164.744L114.631 167.639L116.411 172.225L123.869 169.33ZM114.392 157.037L109.812 155.254L106.91 162.71L111.49 164.492L114.392 157.037ZM106.36 149.262L107.108 144.399L99.2007 143.183L98.4526 148.045L106.36 149.262ZM104.291 133.875L101.215 130.039L94.9737 135.043L98.0497 138.88L104.291 133.875ZM101.215 123.117L104.291 119.28L98.0497 114.276L94.9737 118.113L101.215 123.117ZM107.108 108.756L106.36 103.893L98.4526 105.11L99.2007 109.973L107.108 108.756ZM109.812 97.901L114.392 96.1184L111.49 88.6632L106.91 90.4459L109.812 97.901ZM122.089 88.4114L123.869 83.8254L116.411 80.9304L114.631 85.5164L122.089 88.4114ZM129.844 80.3681L134.701 81.1173L135.92 73.2108L131.064 72.4617L129.844 80.3681ZM145.22 78.2952L149.051 75.215L144.039 68.9799L140.207 72.0602L145.22 78.2952ZM134.701 81.1173C138.448 81.6954 142.265 80.6709 145.22 78.2952L140.207 72.0602C139.002 73.0293 137.446 73.4463 135.92 73.2108L134.701 81.1173ZM123.869 83.8254C124.807 81.4085 127.294 79.9746 129.844 80.3681L131.064 72.4617C124.797 71.4948 118.706 75.02 116.411 80.9304L123.869 83.8254ZM114.392 96.1184C117.925 94.743 120.717 91.946 122.089 88.4114L114.631 85.5164C114.07 86.9617 112.929 88.1028 111.49 88.6632L114.392 96.1184ZM106.36 103.893C105.965 101.328 107.404 98.8382 109.812 97.901L106.91 90.4459C101.002 92.7457 97.4888 98.8448 98.4526 105.11L106.36 103.893ZM104.291 119.28C106.663 116.322 107.684 112.504 107.108 108.756L99.2007 109.973C99.4366 111.506 99.0184 113.068 98.0497 114.276L104.291 119.28ZM101.215 130.039C99.5949 128.017 99.5949 125.138 101.215 123.117L94.9737 118.113C91.0088 123.058 91.0088 130.097 94.9737 135.043L101.215 130.039ZM107.108 144.399C107.684 140.652 106.663 136.834 104.291 133.875L98.0497 138.88C99.0184 140.088 99.4366 141.649 99.2007 143.183L107.108 144.399ZM109.812 155.254C107.404 154.317 105.965 151.827 106.36 149.262L98.4526 148.045C97.4888 154.311 101.002 160.41 106.91 162.71L109.812 155.254ZM122.089 164.744C120.717 161.209 117.925 158.412 114.392 157.037L111.49 164.492C112.929 165.053 114.07 166.194 114.631 167.639L122.089 164.744ZM129.844 172.787C127.294 173.181 124.807 171.747 123.869 169.33L116.411 172.225C118.706 178.135 124.797 181.661 131.064 180.694L129.844 172.787ZM145.22 174.86C142.265 172.485 138.448 171.46 134.701 172.038L135.92 179.945C137.446 179.709 139.002 180.126 140.207 181.095L145.22 174.86ZM155.949 177.94C153.934 179.56 151.066 179.56 149.051 177.94L144.039 184.175C148.981 188.149 156.019 188.149 160.961 184.175L155.949 177.94ZM170.299 172.038C166.552 171.46 162.735 172.485 159.78 174.86L164.793 181.095C165.998 180.126 167.554 179.709 169.08 179.945L170.299 172.038ZM181.131 169.33C180.193 171.747 177.706 173.181 175.156 172.787L173.936 180.694C180.203 181.661 186.294 178.135 188.589 172.225L181.131 169.33ZM190.608 157.037C187.075 158.412 184.283 161.209 182.911 164.744L190.369 167.639C190.93 166.194 192.071 165.053 193.51 164.492L190.608 157.037ZM198.64 149.262C199.035 151.827 197.596 154.317 195.188 155.254L198.09 162.71C203.998 160.41 207.511 154.311 206.547 148.046L198.64 149.262ZM200.709 133.875C198.337 136.834 197.316 140.652 197.892 144.399L205.799 143.183C205.563 141.649 205.982 140.088 206.95 138.88L200.709 133.875ZM203.785 123.117C205.405 125.138 205.405 128.017 203.785 130.039L210.026 135.043C213.991 130.097 213.991 123.058 210.026 118.113L203.785 123.117ZM197.892 108.756C197.316 112.504 198.337 116.322 200.709 119.28L206.95 114.276C205.982 113.068 205.563 111.506 205.799 109.973L197.892 108.756ZM195.188 97.901C197.596 98.8382 199.035 101.328 198.64 103.893L206.547 105.11C207.511 98.8448 203.998 92.7457 198.09 90.4459L195.188 97.901ZM182.911 88.4114C184.283 91.946 187.075 94.743 190.608 96.1184L193.51 88.6632C192.071 88.1028 190.93 86.9617 190.369 85.5164L182.911 88.4114ZM175.156 80.3681C177.706 79.9746 180.193 81.4085 181.131 83.8254L188.589 80.9304C186.294 75.02 180.203 71.4948 173.936 72.4617L175.156 80.3681ZM159.78 78.2952C162.735 80.6709 166.552 81.6954 170.299 81.1173L169.08 73.2108C167.554 73.4463 165.998 73.0293 164.793 72.0602L159.78 78.2952ZM160.961 68.9799C156.019 65.0067 148.981 65.0067 144.039 68.9799L149.051 75.215C151.066 73.595 153.934 73.595 155.949 75.215L160.961 68.9799ZM184.434 126.578C184.434 144.247 170.132 158.562 152.5 158.562V166.562C174.56 166.562 192.434 148.655 192.434 126.578H184.434ZM152.5 158.562C134.868 158.562 120.566 144.247 120.566 126.578H112.566C112.566 148.655 130.44 166.562 152.5 166.562V158.562ZM120.566 126.578C120.566 108.908 134.868 94.5939 152.5 94.5939V86.5939C130.44 86.5939 112.566 104.5 112.566 126.578H120.566ZM152.5 94.5939C170.132 94.5939 184.434 108.908 184.434 126.578H192.434C192.434 104.5 174.56 86.5939 152.5 86.5939V94.5939Z" fill="#C28530"/>
</svg>
