<svg width="304" height="304" viewBox="0 0 304 304" fill="none" xmlns="http://www.w3.org/2000/svg">
<circle cx="152" cy="152" r="152" fill="#FBE797"/>
<path d="M218.41 156.802C218.41 156.802 188.794 127.368 169.817 108.508L152.323 125.25C139.365 136.84 123.816 118.81 134.83 108.508L150.38 92.4094M218.41 156.802C229.748 145.212 244.606 119.589 218.41 89.8337C200.269 69.2281 163.338 79.531 150.38 92.4094M218.41 156.802C225.537 167.749 211.283 179.983 202.033 173.544M84.9415 156.802C72.6311 142.636 60.9682 114.947 84.9415 89.8337C106.689 67.0526 140.661 78.887 150.38 92.4094M84.9415 156.802L105.026 138.128C112.153 132.333 128.351 146.499 120.576 156.802M84.9415 156.802C77.8144 169.037 90.7725 181.271 101.787 174.704M202.033 173.544C208.043 183.203 191.846 197.369 184.719 191.243M202.033 173.544L165.282 138.128M184.719 191.243C189.902 199.301 178.24 210.248 171.167 205.097M184.719 191.243L149.084 155.514M171.167 205.097L153.619 223.771C144.549 231.498 130.295 217.331 133.865 208.795M171.167 205.097C176.944 196.082 163.338 181.271 154.915 188.354M154.915 188.354C160.098 178.052 145.844 164.529 136.774 172.256M154.915 188.354L133.865 208.795M136.774 172.256C143.901 163.241 129.647 149.719 120.576 156.802M136.774 172.256L117.349 191.243M120.576 156.802L101.787 174.704M101.787 174.704C95.3078 183.847 108.914 196.726 117.349 191.243M117.349 191.243C111.505 201.877 127.055 212.824 133.865 208.795" stroke="#C28530" stroke-width="8" stroke-linecap="round" stroke-linejoin="round"/>
</svg>
