<svg width="304" height="304" viewBox="0 0 304 304" fill="none" xmlns="http://www.w3.org/2000/svg">
<circle cx="152" cy="152" r="152" fill="#D0DAF7"/>
<path d="M218.41 157.802C218.41 157.802 188.794 128.368 169.817 109.508L152.323 126.25C139.365 137.84 123.816 119.81 134.83 109.508L150.38 93.4094M218.41 157.802C229.748 146.212 244.606 120.589 218.41 90.8337C200.269 70.2281 163.338 80.531 150.38 93.4094M218.41 157.802C225.537 168.749 211.283 180.983 202.033 174.544M84.9415 157.802C72.6311 143.636 60.9682 115.947 84.9415 90.8337C106.689 68.0526 140.661 79.887 150.38 93.4094M84.9415 157.802L105.026 139.128C112.153 133.333 128.351 147.499 120.576 157.802M84.9415 157.802C77.8144 170.037 90.7725 182.271 101.787 175.704M202.033 174.544C208.043 184.203 191.846 198.369 184.719 192.243M202.033 174.544L165.282 139.128M184.719 192.243C189.902 200.301 178.24 211.248 171.167 206.097M184.719 192.243L149.084 156.514M171.167 206.097L153.619 224.771C144.549 232.498 130.295 218.331 133.865 209.795M171.167 206.097C176.944 197.082 163.338 182.271 154.915 189.354M154.915 189.354C160.098 179.052 145.844 165.529 136.774 173.256M154.915 189.354L133.865 209.795M136.774 173.256C143.901 164.241 129.647 150.719 120.576 157.802M136.774 173.256L117.349 192.243M120.576 157.802L101.787 175.704M101.787 175.704C95.3078 184.847 108.914 197.726 117.349 192.243M117.349 192.243C111.505 202.877 127.055 213.824 133.865 209.795" stroke="#281F96" stroke-width="8" stroke-linecap="round" stroke-linejoin="round"/>
</svg>
